<svg width="108" height="32" viewBox="0 0 108 32" fill="none" xmlns="http://www.w3.org/2000/svg">
<path d="M99.6117 0H7.56681C7.26671 0 6.98804 0 6.68794 0C6.45215 0 6.19492 0 5.95913 0C5.42323 0.0213476 4.88734 0.0426951 4.37288 0.149433C3.83699 0.234823 3.34397 0.405604 2.87239 0.640427C2.4008 0.87525 1.97209 1.19546 1.58624 1.57972C1.2004 1.96398 0.9003 2.39093 0.643071 2.86057C0.385843 3.35157 0.235793 3.84256 0.15005 4.3549C0.0643071 4.88859 0.0214357 5.40093 0 5.93462C0 6.19079 0 6.42562 0 6.68179C0 6.95931 0 7.25817 0 7.53569V24.4857C0 24.7845 0 25.062 0 25.3396C0 25.5744 0 25.8306 0.0214357 26.0654C0.0428714 26.5991 0.0643071 27.1328 0.171486 27.6451C0.257229 28.1788 0.428714 28.6698 0.664507 29.1394C0.9003 29.6091 1.22184 30.036 1.60768 30.4203C1.99352 30.8045 2.42224 31.1034 2.89382 31.3596C3.38684 31.6157 3.87986 31.7652 4.39432 31.8506C4.93021 31.936 5.46611 31.9787 5.98056 32C6.21636 32 6.47358 32 6.70938 32C7.00948 32 7.28814 32 7.58824 32H99.6332C99.9118 32 100.212 32 100.491 32C100.726 32 100.984 32 101.219 32C101.755 31.9787 102.291 31.9573 102.806 31.8506C103.342 31.7652 103.835 31.5944 104.328 31.3596C104.799 31.1248 105.228 30.8045 105.614 30.4203C106 30.0574 106.3 29.6091 106.557 29.1394C106.793 28.6698 106.964 28.1574 107.05 27.6451C107.157 27.1114 107.179 26.5991 107.2 26.0654C107.2 25.8306 107.2 25.5744 107.2 25.3396C107.2 25.062 107.2 24.7632 107.2 24.4857V7.53569C107.2 7.23682 107.2 6.95931 107.2 6.68179C107.2 6.44696 107.2 6.19079 107.2 5.95597C107.179 5.42228 107.157 4.88859 107.05 4.37625C106.964 3.84256 106.793 3.35157 106.557 2.88192C106.321 2.41227 106 1.98532 105.614 1.60107C105.249 1.21681 104.799 0.917945 104.328 0.661775C103.835 0.426951 103.342 0.256171 102.806 0.170781C102.291 0.0853903 101.755 0.0426951 101.219 0.0213476C100.984 0.0213476 100.726 0.0213476 100.491 0.0213476C100.191 0 99.9118 0 99.6117 0Z" fill="black"/>
<path d="M6.70946 31.3387C6.47366 31.3387 6.23787 31.3387 6.00208 31.3387C5.55193 31.3173 5.03747 31.296 4.52302 31.2106C4.02999 31.1252 3.60128 30.9757 3.21544 30.7836C2.80816 30.5701 2.42232 30.314 2.10078 29.9724C1.77924 29.6522 1.50058 29.2893 1.28622 28.8623C1.07187 28.4567 0.943251 28.0298 0.857508 27.5601C0.75033 27.0264 0.728894 26.4928 0.728894 26.0872C0.728894 25.9164 0.707458 25.3613 0.707458 25.3613V6.68221C0.707458 6.68221 0.707459 6.12718 0.728894 5.97774C0.728894 5.57214 0.771766 5.0171 0.857508 4.50476C0.943251 4.01377 1.0933 3.58682 1.28622 3.18121C1.50058 2.77561 1.75781 2.39135 2.10078 2.07114C2.42232 1.75093 2.80816 1.47341 3.21544 1.25993C3.62272 1.04646 4.05143 0.918371 4.52302 0.83298C5.05891 0.74759 5.5948 0.704895 6.00208 0.704895H6.70946H100.491H101.22C101.627 0.704895 102.163 0.74759 102.699 0.83298C103.17 0.918371 103.599 1.0678 104.028 1.25993C104.435 1.47341 104.799 1.72958 105.142 2.07114C105.464 2.39135 105.742 2.75426 105.957 3.18121C106.171 3.58682 106.3 4.01377 106.386 4.48341C106.471 4.97441 106.514 5.48675 106.514 5.97774C106.514 6.19122 106.514 6.44739 106.514 6.68221C106.514 6.98108 106.514 7.2586 106.514 7.53612V24.4861C106.514 24.7636 106.514 25.0625 106.514 25.34C106.514 25.5962 106.514 25.831 106.514 26.0658C106.493 26.5354 106.471 27.0478 106.386 27.5388C106.3 28.0298 106.171 28.4567 105.957 28.8623C105.742 29.2679 105.464 29.6522 105.142 29.9511C104.821 30.2713 104.435 30.5488 104.028 30.7623C103.62 30.9757 103.192 31.1038 102.699 31.1892C102.184 31.2746 101.67 31.296 101.22 31.3173C100.984 31.3173 100.748 31.3173 100.512 31.3173H99.6547L6.70946 31.3387Z" fill="white"/>
<path d="M39.7848 21.6252H36.0121L35.0904 24.1229H33.4398L37.1268 14.7513H38.6916L42.4643 24.1229H40.728L39.7848 21.6252ZM36.4837 20.3443H39.2918L38.2843 17.6546C38.1557 17.2916 38.0056 16.8647 37.877 16.4164C37.7484 16.822 37.6198 17.2276 37.4912 17.6332L36.4837 20.3443Z" fill="black"/>
<path d="M43.1287 18.8499C43.1287 18.3375 43.1073 17.7611 43.0858 17.142H44.5863C44.6506 17.4409 44.6721 17.7184 44.6935 18.0173C45.3151 17.3342 46.0225 16.9926 46.8371 16.9926C47.3087 16.9926 47.7374 17.0994 48.1447 17.3342C48.5519 17.569 48.8735 17.9319 49.1093 18.4442C49.3451 18.9566 49.4737 19.597 49.4737 20.3655C49.4737 21.1767 49.3236 21.8812 49.045 22.4576C48.7663 23.034 48.3804 23.4823 47.866 23.7598C47.373 24.0587 46.7942 24.2081 46.1297 24.2081C45.6581 24.2081 45.1865 24.1227 44.7149 23.9733V26.8979L43.1073 27.026V18.8499H43.1287ZM47.3515 22.4149C47.6731 21.9879 47.8445 21.3475 47.8445 20.4936C47.8445 19.7038 47.7159 19.1487 47.4373 18.8072C47.1586 18.4656 46.8156 18.2735 46.3655 18.2735C46.0439 18.2735 45.7653 18.3375 45.5081 18.4869C45.2508 18.6364 44.9936 18.8285 44.7578 19.0847V22.8205C44.9079 22.9059 45.1008 22.9699 45.3151 23.0126C45.5295 23.0553 45.7438 23.0767 45.9368 23.0767C46.537 23.0767 47.0086 22.8632 47.3515 22.4149Z" fill="black"/>
<path d="M50.4384 18.8499C50.4384 18.3375 50.417 17.7611 50.3956 17.142H51.8961C51.9604 17.4409 51.9818 17.7184 52.0032 18.0173C52.6249 17.3342 53.3323 16.9926 54.1468 16.9926C54.6184 16.9926 55.0471 17.0994 55.4544 17.3342C55.8617 17.569 56.1832 17.9319 56.419 18.4442C56.6548 18.9566 56.7834 19.597 56.7834 20.3655C56.7834 21.1767 56.6334 21.8812 56.3547 22.4576C56.076 23.034 55.6902 23.4823 55.1757 23.7598C54.6827 24.0587 54.1039 24.2081 53.4394 24.2081C52.9679 24.2081 52.4963 24.1227 52.0247 23.9733V26.8979L50.417 27.026V18.8499H50.4384ZM54.6613 22.4149C54.9828 21.9879 55.1543 21.3475 55.1543 20.4936C55.1543 19.7038 55.0257 19.1487 54.747 18.8072C54.4684 18.4656 54.1254 18.2735 53.6752 18.2735C53.3537 18.2735 53.075 18.3375 52.8178 18.4869C52.5606 18.6364 52.3033 18.8285 52.0676 19.0847V22.8205C52.2176 22.9059 52.4105 22.9699 52.6249 23.0126C52.8392 23.0553 53.0536 23.0767 53.2465 23.0767C53.8467 23.0767 54.3397 22.8632 54.6613 22.4149Z" fill="black"/>
<path d="M59.7202 23.6748C59.0342 23.2906 58.4983 22.7569 58.1339 22.0311C57.7695 21.3266 57.5766 20.4727 57.5766 19.5121C57.5766 18.466 57.791 17.5695 58.2197 16.8436C58.6484 16.1178 59.2271 15.5628 59.9774 15.1999C60.7062 14.837 61.5422 14.6448 62.4639 14.6448C62.9998 14.6448 63.5143 14.7089 64.0073 14.8156C64.5003 14.9437 64.9505 15.0931 65.3792 15.3066L64.9719 16.5448C64.1145 16.1392 63.2999 15.947 62.5282 15.947C61.8852 15.947 61.3064 16.0965 60.8134 16.374C60.3204 16.6515 59.9345 17.0571 59.6773 17.5908C59.3986 18.1245 59.27 18.7863 59.27 19.5334C59.27 20.1952 59.3772 20.7929 59.5915 21.3053C59.8059 21.8176 60.1274 22.2232 60.5776 22.5434C61.0277 22.8423 61.6065 22.9917 62.2924 22.9917C62.614 22.9917 62.9141 22.9704 63.2356 22.9063C63.5571 22.8423 63.8358 22.7783 64.1145 22.6715V20.7716H61.9495V19.5334H65.6793V23.4827C65.1434 23.7389 64.586 23.931 63.9859 24.0591C63.3857 24.1872 62.8069 24.2512 62.2281 24.2512C61.2421 24.2512 60.4275 24.0591 59.7202 23.6748Z" fill="black"/>
<path d="M71.3169 24.1232C71.2526 23.8456 71.2311 23.5468 71.2097 23.2052C70.9525 23.5041 70.6524 23.7389 70.2451 23.9524C69.8592 24.1659 69.4091 24.2512 68.8946 24.2512C68.4874 24.2512 68.1229 24.1659 67.8014 24.0164C67.4799 23.867 67.2012 23.6322 67.0083 23.3119C66.8154 22.9917 66.7082 22.6075 66.7082 22.1592C66.7082 21.4761 66.944 20.9424 67.437 20.5368C67.93 20.1312 68.7446 19.939 69.8807 19.939C70.3094 19.939 70.7381 19.9604 71.1454 20.0244V19.8963C71.1454 19.2773 71.0168 18.8503 70.7595 18.5941C70.5023 18.338 70.1165 18.2099 69.6234 18.2099C69.2805 18.2099 68.9161 18.2526 68.5302 18.3593C68.1444 18.4661 67.8014 18.5728 67.5013 18.7222L67.2441 17.5695C67.5227 17.4414 67.9086 17.3133 68.3802 17.2065C68.8518 17.0998 69.3448 17.0358 69.8592 17.0358C70.4594 17.0358 70.9739 17.1212 71.4026 17.3133C71.8313 17.5054 72.1529 17.8043 72.3887 18.2526C72.6245 18.7009 72.7531 19.2986 72.7531 20.0458V22.821C72.7531 23.1198 72.7745 23.5468 72.7959 24.1232H71.3169ZM70.3737 22.821C70.7167 22.6715 70.9739 22.458 71.1883 22.2232V20.921C70.7595 20.8783 70.3951 20.857 70.1165 20.857C69.452 20.857 69.0018 20.9637 68.7446 21.1772C68.4874 21.3907 68.3587 21.6682 68.3587 22.0311C68.3587 22.3727 68.4445 22.6288 68.6374 22.7996C68.8303 22.9704 69.0661 23.0558 69.3877 23.0558C69.7092 23.0771 70.0307 22.9917 70.3737 22.821Z" fill="black"/>
<path d="M74.0177 22.4578V14.2176L75.6039 14.0895V22.1803C75.6039 22.4791 75.6468 22.6926 75.754 22.8207C75.8612 22.9488 76.0112 23.0128 76.247 23.0128C76.3542 23.0128 76.4828 22.9915 76.6757 22.9488L76.8686 24.1016C76.7186 24.1656 76.5257 24.2083 76.3113 24.251C76.097 24.2937 75.8826 24.315 75.6897 24.315C74.575 24.251 74.0177 23.6533 74.0177 22.4578Z" fill="black"/>
<path d="M78.0048 22.4578V14.2176L79.591 14.0895V22.1803C79.591 22.4791 79.6339 22.6926 79.741 22.8207C79.8482 22.9488 79.9983 23.0128 80.234 23.0128C80.3412 23.0128 80.4698 22.9915 80.6628 22.9488L80.8557 24.1016C80.7056 24.1656 80.5127 24.2083 80.2984 24.251C80.084 24.2937 79.8697 24.315 79.6767 24.315C78.5621 24.251 78.0048 23.6533 78.0048 22.4578Z" fill="black"/>
<path d="M87.4151 20.8352H82.8278C82.8921 22.2868 83.5995 23.034 84.9285 23.034C85.2501 23.034 85.593 22.9913 85.936 22.9059C86.279 22.8205 86.6005 22.7138 86.922 22.5857L87.265 23.6744C86.4719 24.0587 85.593 24.2508 84.6284 24.2508C83.8782 24.2508 83.2565 24.1014 82.7421 23.8238C82.2276 23.5463 81.8418 23.1407 81.5846 22.607C81.3273 22.0733 81.1987 21.4543 81.1987 20.7071C81.1987 19.9386 81.3273 19.2768 81.606 18.7218C81.8847 18.1667 82.2491 17.7398 82.7421 17.4409C83.2351 17.142 83.7924 16.9926 84.4355 16.9926C85.1 16.9926 85.6573 17.142 86.086 17.4623C86.5362 17.7611 86.8577 18.1881 87.0721 18.7004C87.2864 19.2128 87.3936 19.7891 87.3936 20.4082V20.8352H87.4151ZM85.8503 19.8318C85.8288 19.2768 85.6788 18.8499 85.4215 18.5723C85.1643 18.2948 84.8428 18.1454 84.4141 18.1454C84.0068 18.1454 83.6638 18.2948 83.4066 18.5723C83.1279 18.8499 82.9565 19.2768 82.8707 19.8105H85.8503V19.8318Z" fill="black"/>
<path d="M88.6154 18.893C88.6154 18.5087 88.5939 17.9324 88.5725 17.1425H90.073C90.0944 17.3346 90.1159 17.5695 90.1373 17.847C90.1587 18.1245 90.1802 18.338 90.1802 18.5087C90.3731 18.2099 90.5446 17.9537 90.7375 17.7402C90.909 17.5268 91.1234 17.356 91.3591 17.2279C91.5949 17.0998 91.8736 17.0358 92.1737 17.0358C92.4309 17.0358 92.6238 17.0571 92.8168 17.1212L92.6238 18.5087C92.4738 18.4661 92.3023 18.4447 92.1094 18.4447C91.7236 18.4447 91.402 18.5301 91.1234 18.7222C90.8447 18.9144 90.5446 19.2346 90.2231 19.6615V24.1445H88.6368V18.893H88.6154Z" fill="black"/>
<path d="M93.717 26.9834C93.4812 26.9407 93.2882 26.8981 93.1382 26.834L93.4383 25.6812C93.5455 25.7026 93.6741 25.7453 93.8456 25.7666C94.017 25.788 94.1671 25.8093 94.3171 25.8093C95.0245 25.8093 95.5604 25.361 95.9034 24.4431L96.0106 24.1869L93.4383 17.1636H95.1531L96.4607 21.0915C96.6751 21.7533 96.8037 22.287 96.868 22.6285C96.9966 22.1162 97.1252 21.6252 97.2967 21.1129L98.6043 17.1422H100.212L97.6397 24.2083C97.4039 24.87 97.1252 25.4251 96.8466 25.8307C96.5679 26.2363 96.2249 26.5351 95.8605 26.7486C95.4747 26.9407 95.0245 27.0475 94.4672 27.0475C94.21 27.0475 93.9527 27.0261 93.717 26.9834Z" fill="black"/>
<path d="M33.4398 5.84943H36.2908L36.205 6.53255H34.2758V7.8561H36.0978V8.49652H34.2758V9.96951H36.3122L36.2479 10.6526H33.4398V5.84943Z" fill="black"/>
<path d="M38.263 8.219L36.7625 5.84943H37.7057L38.7346 7.57858L39.8064 5.84943H40.7282L39.2277 8.17631L40.8353 10.674H39.8707L38.7132 8.77404L37.5342 10.674H36.6125L38.263 8.219Z" fill="black"/>
<path d="M41.4568 5.84943H42.7644C43.386 5.84943 43.8576 5.97751 44.1791 6.23368C44.5007 6.48985 44.6721 6.85276 44.6721 7.32241C44.6721 7.64262 44.6078 7.92014 44.4578 8.15496C44.3077 8.38978 44.1148 8.58191 43.8362 8.71C43.5789 8.83808 43.2788 8.90213 42.9359 8.90213C42.7429 8.90213 42.5286 8.88078 42.2928 8.83808V10.674H41.4568V5.84943ZM43.5575 8.00553C43.729 7.83475 43.8147 7.62127 43.8147 7.32241C43.8147 7.02354 43.729 6.81007 43.5361 6.68198C43.3646 6.5539 43.0859 6.48985 42.7429 6.48985H42.2928V8.19766C42.5071 8.24035 42.6572 8.24035 42.7644 8.24035C43.1288 8.24035 43.386 8.15496 43.5575 8.00553Z" fill="black"/>
<path d="M45.5081 5.84943H46.344V9.9695H48.359L48.2947 10.674H45.5295V5.84943H45.5081Z" fill="black"/>
<path d="M49.6238 10.4392C49.2594 10.247 49.0022 9.94816 48.8092 9.58525C48.6163 9.22234 48.5306 8.79539 48.5306 8.3044C48.5306 7.79206 48.6378 7.34376 48.8307 6.9595C49.0236 6.57525 49.3237 6.27638 49.6881 6.08425C50.0739 5.87078 50.5027 5.76404 51.0171 5.76404C51.5101 5.76404 51.9174 5.87078 52.2818 6.0629C52.6248 6.25503 52.9035 6.5539 53.0964 6.91681C53.2893 7.27972 53.375 7.70667 53.375 8.17631C53.375 8.68865 53.2679 9.13695 53.0749 9.52121C52.882 9.90546 52.5819 10.2043 52.2175 10.3965C51.8531 10.6099 51.403 10.7167 50.9099 10.7167C50.3955 10.738 49.9668 10.6313 49.6238 10.4392ZM51.7888 9.84142C52.0246 9.69199 52.1961 9.47851 52.3247 9.20099C52.4319 8.92348 52.4962 8.60326 52.4962 8.2617C52.4962 7.92014 52.4533 7.59993 52.3461 7.34376C52.239 7.06624 52.0889 6.85276 51.8531 6.70333C51.6173 6.53255 51.3387 6.46851 50.9742 6.46851C50.6313 6.46851 50.3526 6.5539 50.1168 6.70333C49.881 6.87411 49.7095 7.08759 49.5809 7.3651C49.4523 7.64262 49.4094 7.94149 49.4094 8.28305C49.4094 8.62461 49.4738 8.94482 49.5809 9.22234C49.6881 9.49986 49.8596 9.71334 50.0954 9.88412C50.3312 10.0549 50.6098 10.1189 50.9528 10.1189C51.2743 10.0762 51.553 10.0122 51.7888 9.84142Z" fill="black"/>
<path d="M54.2968 5.84943H55.8187C56.376 5.84943 56.7833 5.95616 57.0834 6.16964C57.3835 6.38311 57.5121 6.70333 57.5121 7.10893C57.5121 7.3651 57.4692 7.59993 57.3621 7.79205C57.2549 7.98418 57.1263 8.15496 56.9762 8.2617C56.8262 8.38978 56.6761 8.47517 56.5046 8.53922L58.0051 10.674H57.0191L55.7544 8.75269H55.1327V10.674H54.2968V5.84943ZM55.6043 8.13361C55.7972 8.13361 55.9902 8.09092 56.1402 8.00553C56.2903 7.92014 56.4189 7.8134 56.5046 7.66397C56.5904 7.51454 56.6332 7.34375 56.6332 7.17297C56.6332 6.93815 56.5475 6.74602 56.3975 6.63929C56.2474 6.53255 56.0116 6.46851 55.7329 6.46851H55.1327V8.11227H55.6043V8.13361Z" fill="black"/>
<path d="M58.6483 5.84943H61.4992L61.4135 6.53255H59.4842V7.8561H61.3063V8.49652H59.4842V9.96951H61.5206L61.4563 10.6526H58.6483V5.84943Z" fill="black"/>
<path d="M64.6072 5.84943H65.4432V10.674H64.6072V5.84943Z" fill="black"/>
<path d="M67.6727 6.53278H66.1722L66.2365 5.82831H70.0091L69.9234 6.53278H68.4872V10.6742H67.6512V6.53278H67.6727Z" fill="black"/>
<path d="M73.6532 10.4392C73.2888 10.247 73.0315 9.94816 72.8386 9.58525C72.6457 9.22234 72.5599 8.79539 72.5599 8.3044C72.5599 7.79206 72.6671 7.34376 72.86 6.9595C73.053 6.57525 73.3531 6.27638 73.7175 6.08425C74.1033 5.87078 74.532 5.76404 75.0465 5.76404C75.5395 5.76404 75.9468 5.87078 76.3112 6.0629C76.6542 6.25503 76.9328 6.5539 77.1258 6.91681C77.3187 7.27972 77.4044 7.70667 77.4044 8.17631C77.4044 8.68865 77.2973 9.13695 77.1043 9.52121C76.9114 9.90546 76.6113 10.2043 76.2469 10.3965C75.8825 10.6099 75.4323 10.7167 74.9393 10.7167C74.4249 10.738 73.9961 10.6313 73.6532 10.4392ZM75.8182 9.84142C76.054 9.69199 76.2255 9.47851 76.3541 9.20099C76.4613 8.92348 76.5256 8.60326 76.5256 8.2617C76.5256 7.92014 76.4827 7.59993 76.3755 7.34376C76.2683 7.06624 76.1183 6.85276 75.8825 6.70333C75.6467 6.53255 75.368 6.46851 75.0036 6.46851C74.6606 6.46851 74.382 6.5539 74.1462 6.70333C73.9104 6.87411 73.7389 7.08759 73.6103 7.3651C73.4817 7.64262 73.4388 7.94149 73.4388 8.28305C73.4388 8.62461 73.5031 8.94482 73.6103 9.22234C73.7175 9.49986 73.889 9.71334 74.1247 9.88412C74.3605 10.0549 74.6392 10.1189 74.9822 10.1189C75.2823 10.0762 75.5824 10.0122 75.8182 9.84142Z" fill="black"/>
<path d="M78.3263 5.84943H79.2909L81.6917 9.58525C81.6702 9.22234 81.6702 8.90213 81.6702 8.60326V5.84943H82.4419V10.674H81.5202L79.0765 6.87411C79.098 7.30106 79.1194 7.68531 79.1194 8.02688V10.674H78.3477V5.84943H78.3263Z" fill="black"/>
<path fill-rule="evenodd" clip-rule="evenodd" d="M21.65 5.8703H12.7542C8.55282 5.8703 7.03088 7.40733 7.03088 11.5701V20.4293C7.03088 24.6135 8.57426 26.1291 12.7542 26.1291H21.65C25.8514 26.1291 27.3734 24.5921 27.3734 20.4293V11.5701C27.3948 7.40733 25.8514 5.8703 21.65 5.8703Z" fill="#C8102E"/>
<path d="M11.0607 16.0107H11.5966V18.6578H11.0607V17.5905H9.83887V18.6578H9.30298V16.0107H9.83887V17.0781H11.0607V16.0107ZM14.1046 17.5264C14.1046 17.9534 13.8902 18.1882 13.5044 18.1882C13.1185 18.1882 12.9042 17.9534 12.9042 17.5051V16.0107H12.3683V17.5264C12.3683 18.2736 12.7756 18.7005 13.5044 18.7005C14.2332 18.7005 14.6619 18.2736 14.6619 17.5051V16.0107H14.126V17.5264H14.1046ZM20.3424 17.8253L19.7422 16.0107H19.292L18.6918 17.8253L18.1131 16.0107H17.5343L18.456 18.6578H18.9062L19.5064 16.9073L20.1066 18.6578H20.5567L21.4785 16.0107H20.9211L20.3424 17.8253ZM22.4645 17.5264H23.4505V17.0354H22.4645V16.5017H23.9007V16.0107H21.95V18.6578H23.965V18.1668H22.4859V17.5264H22.4645ZM24.5866 18.6578H25.1225V16.0107H24.5866V18.6578ZM15.7123 18.1028L15.4765 18.6578H14.9191L16.0767 16.0107H16.5482L17.7058 18.6578H17.1484L16.9341 18.1028H15.7123ZM15.9052 17.6332H16.7197L16.3125 16.6939L15.9052 17.6332Z" fill="white"/>
<path d="M17.2128 12.6377C15.3479 12.6377 13.826 11.1221 13.826 9.26483H14.2976C14.2976 10.8659 15.6052 12.1681 17.2128 12.1681C18.8205 12.1681 20.1281 10.8659 20.1281 9.26483H20.5997C20.5997 11.1221 19.0777 12.6377 17.2128 12.6377Z" fill="white"/>
</svg>
