<svg width="96" height="32" viewBox="0 0 96 32" fill="none" xmlns="http://www.w3.org/2000/svg">
<g clip-path="url(#clip0_3270_28088)">
<path d="M88.3552 -1.80703e-05H7.64916C7.35497 -1.80703e-05 7.06432 -1.80703e-05 6.77091 0.00158193C6.52531 0.00318193 6.28166 0.00782993 6.03369 0.0117419C5.49499 0.0180634 4.95756 0.0653229 4.42607 0.15311C3.89532 0.242808 3.3812 0.411914 2.9011 0.65471C2.42158 0.899559 1.98343 1.21772 1.60254 1.59764C1.21966 1.97649 0.900491 2.41439 0.65732 2.89451C0.413478 3.37367 0.244397 3.88713 0.155916 4.41717C0.0665952 4.94653 0.0185306 5.482 0.012154 6.01877C0.00470918 6.26405 0.00392298 6.51014 0 6.75545V25.2469C0.00392298 25.4953 0.00470918 25.7359 0.012154 25.9844C0.0185325 26.5211 0.0665971 27.0566 0.155916 27.5859C0.244152 28.1162 0.413243 28.63 0.65732 29.1093C0.900381 29.5879 1.21959 30.024 1.60254 30.4008C1.98198 30.7824 2.42042 31.1008 2.9011 31.3437C3.3812 31.5872 3.89526 31.7573 4.42607 31.8484C4.95765 31.9355 5.49503 31.9827 6.03369 31.9898C6.28166 31.9953 6.52531 31.9984 6.77091 31.9984C7.06431 32 7.35499 32 7.64916 32H88.3552C88.6435 32 88.9365 32 89.2248 31.9984C89.4692 31.9984 89.7199 31.9953 89.9644 31.9898C90.502 31.9831 91.0384 31.9358 91.5689 31.8484C92.1014 31.7567 92.6173 31.5866 93.0997 31.3437C93.58 31.1006 94.018 30.7823 94.3971 30.4008C94.7791 30.0226 95.099 29.5867 95.345 29.1093C95.5873 28.6297 95.7548 28.1159 95.8417 27.5859C95.9312 27.0565 95.9809 26.5212 95.9906 25.9844C95.9937 25.7359 95.9937 25.4953 95.9937 25.2469C96 24.9562 96 24.6672 96 24.3718V7.62889C96 7.33592 96 7.04529 95.9937 6.75545C95.9937 6.51014 95.9937 6.26405 95.9906 6.01873C95.9809 5.48192 95.9312 4.94657 95.8417 4.41713C95.7545 3.88741 95.5871 3.37398 95.345 2.89448C94.8498 1.93214 94.0646 1.1488 93.0997 0.654638C92.6173 0.412436 92.1013 0.243374 91.5689 0.153038C91.0385 0.0648642 90.5021 0.0175881 89.9644 0.0116299C89.7199 0.00772593 89.4692 0.00303793 89.2248 0.00147793C88.9365 -0.00012207 88.6435 -0.00012207 88.3552 -0.00012207V-1.80703e-05Z" fill="black"/>
<path d="M6.77484 31.2998C6.53041 31.2998 6.29189 31.2966 6.04938 31.2912C5.547 31.2847 5.04579 31.2411 4.54987 31.1607C4.08744 31.0813 3.63948 30.9336 3.22075 30.7224C2.80587 30.513 2.42745 30.2384 2.10002 29.9091C1.76784 29.5837 1.49129 29.2064 1.28132 28.7919C1.06903 28.3748 0.922121 27.9277 0.845697 27.4662C0.763166 26.9703 0.718513 26.4688 0.712123 25.9662C0.707037 25.7974 0.700378 25.2357 0.700378 25.2357V6.75524C0.700378 6.75524 0.70747 6.20211 0.712163 6.03961C0.718281 5.53775 0.762675 5.03709 0.844959 4.54195C0.921525 4.07917 1.06855 3.63077 1.28095 3.21227C1.49015 2.79812 1.76516 2.42046 2.09534 2.09391C2.42515 1.76427 2.80477 1.48825 3.22036 1.27594C3.63813 1.06544 4.08524 0.918754 4.54673 0.840784C5.04428 0.759637 5.54723 0.715765 6.05135 0.709536L6.77523 0.699768H89.2209L89.9534 0.709928C90.4529 0.715847 90.9513 0.759328 91.4443 0.84C91.9105 0.918948 92.3622 1.06666 92.7848 1.27828C93.6174 1.70616 94.2948 2.3831 94.7222 3.21422C94.9312 3.62983 95.076 4.07457 95.1516 4.53336C95.2348 5.03256 95.2814 5.53716 95.291 6.04313C95.2933 6.26969 95.2933 6.51305 95.2933 6.75524C95.2997 7.05524 95.2996 7.34078 95.2996 7.62867V24.3716C95.2996 24.6622 95.2997 24.9458 95.2933 25.2318C95.2933 25.4919 95.2933 25.7302 95.2902 25.9755C95.2808 26.4725 95.235 26.9681 95.1531 27.4583C95.0782 27.9232 94.9321 28.3738 94.7199 28.7943C94.5084 29.2043 94.2334 29.5784 93.9051 29.9029C93.5774 30.2339 93.1983 30.5101 92.7824 30.7209C92.3611 30.9337 91.91 31.082 91.4443 31.1607C90.9484 31.2415 90.4472 31.2851 89.9447 31.2912C89.7098 31.2966 89.4637 31.2998 89.2248 31.2998L88.3552 31.3014L6.77484 31.2998Z" fill="white"/>
<path d="M20.0535 15.9123C20.0625 15.2179 20.2475 14.5371 20.5912 13.9332C20.9349 13.3292 21.4263 12.8218 22.0195 12.4581C21.6426 11.9214 21.1455 11.4797 20.5675 11.1681C19.9895 10.8565 19.3466 10.6836 18.6899 10.6631C17.289 10.5165 15.9309 11.499 15.217 11.499C14.4893 11.499 13.3901 10.6777 12.2066 10.702C11.441 10.7266 10.6949 10.9486 10.0409 11.3463C9.38697 11.744 8.84748 12.3039 8.47501 12.9713C6.86161 15.7569 8.06507 19.8508 9.6106 22.1025C10.3839 23.2051 11.2876 24.4367 12.4701 24.393C13.6273 24.3452 14.0594 23.6572 15.4562 23.6572C16.8401 23.6572 17.2455 24.393 18.452 24.3653C19.6937 24.3452 20.476 23.2578 21.2222 22.1448C21.7778 21.3591 22.2053 20.4908 22.4889 19.5721C21.7675 19.2678 21.1519 18.7585 20.7188 18.1077C20.2858 17.4569 20.0544 16.6934 20.0535 15.9123Z" fill="black"/>
<path d="M17.7748 9.18199C18.4518 8.37153 18.7854 7.32982 18.7046 6.27808C17.6703 6.38641 16.7148 6.87937 16.0287 7.65873C15.6932 8.03947 15.4362 8.48242 15.2725 8.96224C15.1088 9.44207 15.0415 9.94936 15.0745 10.4551C15.5919 10.4604 16.1037 10.3486 16.5714 10.1281C17.0391 9.90756 17.4506 9.58407 17.7748 9.18199Z" fill="black"/>
<path d="M33.9366 21.7121H30.1393L29.2274 24.3973H27.619L31.2157 14.4629H32.8868L36.4836 24.3973H34.8478L33.9366 21.7121ZM30.5326 20.4731H33.5426L32.0588 16.1153H32.0172L30.5326 20.4731Z" fill="black"/>
<path d="M44.2513 20.7757C44.2513 23.0265 43.0432 24.4726 41.2202 24.4726C40.7584 24.4967 40.2991 24.3906 39.8949 24.1665C39.4907 23.9424 39.158 23.6093 38.9349 23.2054H38.9004V26.7929H37.4095V17.1538H38.8526V18.3585H38.88C39.1134 17.9566 39.4518 17.6252 39.859 17.3997C40.2662 17.1743 40.7272 17.0631 41.1927 17.0781C43.0362 17.0781 44.2513 18.5312 44.2513 20.7757ZM42.7189 20.7757C42.7189 19.3093 41.959 18.3452 40.7995 18.3452C39.6603 18.3452 38.8941 19.3296 38.8941 20.7757C38.8941 22.2351 39.6603 23.2124 40.7995 23.2124C41.959 23.2124 42.7189 22.2554 42.7189 20.7757H42.7189Z" fill="black"/>
<path d="M52.2461 20.7757C52.2461 23.0265 51.0376 24.4726 49.2146 24.4726C48.7527 24.4967 48.2935 24.3906 47.8893 24.1665C47.4851 23.9424 47.1524 23.6093 46.9293 23.2054H46.8948V26.7929H45.4039V17.1538H46.847V18.3585H46.8744C47.1078 17.9566 47.4461 17.6252 47.8534 17.3997C48.2606 17.1743 48.7215 17.0631 49.1871 17.0781C51.0306 17.0781 52.2461 18.5312 52.2461 20.7757ZM50.7133 20.7757C50.7133 19.3093 49.9533 18.3452 48.7939 18.3452C47.6547 18.3452 46.8885 19.3296 46.8885 20.7757C46.8885 22.2351 47.6547 23.2124 48.7939 23.2124C49.9533 23.2124 50.7133 22.2554 50.7133 20.7757Z" fill="black"/>
<path d="M57.5287 21.6293C57.6392 22.6144 58.5989 23.2613 59.9104 23.2613C61.1671 23.2613 62.0711 22.6144 62.0711 21.7261C62.0711 20.955 61.5259 20.4933 60.2348 20.1769L58.9437 19.8667C57.1143 19.4261 56.2651 18.573 56.2651 17.1886C56.2651 15.4745 57.763 14.2972 59.8893 14.2972C61.9952 14.2972 63.4383 15.4745 63.4868 17.1886H61.9818C61.8917 16.1972 61.0699 15.5987 59.8689 15.5987C58.6679 15.5987 57.846 16.2042 57.846 17.0855C57.846 17.7878 58.3709 18.2011 59.655 18.5175L60.7526 18.7862C62.7966 19.2683 63.6451 20.087 63.6451 21.5401C63.6451 23.3987 62.1612 24.5628 59.7999 24.5628C57.5906 24.5628 56.0989 23.4261 56.0026 21.6292L57.5287 21.6293Z" fill="black"/>
<path d="M66.8643 15.4399V17.154H68.2455V18.3313H66.8643V22.3243C66.8643 22.9446 67.1408 23.2337 67.748 23.2337C67.912 23.2308 68.0757 23.2194 68.2384 23.1993V24.3696C67.9654 24.4205 67.688 24.4435 67.4103 24.4384C65.9398 24.4384 65.3663 23.8876 65.3663 22.4829V18.3313H64.3102V17.154H65.3663V15.4399H66.8643Z" fill="black"/>
<path d="M69.0446 20.7766C69.0446 18.4977 70.3906 17.0657 72.4894 17.0657C74.5953 17.0657 75.935 18.4977 75.935 20.7766C75.935 23.0618 74.6024 24.4875 72.4894 24.4875C70.3772 24.4875 69.0446 23.0618 69.0446 20.7766ZM74.4159 20.7766C74.4159 19.2133 73.6975 18.2907 72.4894 18.2907C71.2813 18.2907 70.5629 19.2204 70.5629 20.7766C70.5629 22.3461 71.2813 23.2618 72.4894 23.2618C73.6975 23.2618 74.4159 22.3461 74.4159 20.7766H74.4159Z" fill="black"/>
<path d="M77.1643 17.1547H78.5862V18.3875H78.6207C78.7169 18.0025 78.9431 17.6623 79.2613 17.4239C79.5794 17.1856 79.9702 17.0638 80.3678 17.079C80.5396 17.0784 80.7109 17.097 80.8786 17.1344V18.5251C80.6617 18.459 80.4354 18.4286 80.2087 18.4352C79.9921 18.4265 79.7762 18.4645 79.5758 18.5468C79.3753 18.6292 79.1951 18.7537 79.0475 18.912C78.8999 19.0704 78.7884 19.2587 78.7207 19.464C78.653 19.6693 78.6306 19.8868 78.6551 20.1016V24.3977H77.1642L77.1643 17.1547Z" fill="black"/>
<path d="M87.7524 22.2704C87.5519 23.5852 86.2678 24.4875 84.6249 24.4875C82.512 24.4875 81.2005 23.0758 81.2005 20.811C81.2005 18.5391 82.519 17.0657 84.5623 17.0657C86.5718 17.0657 87.8355 18.4422 87.8355 20.6383V21.1477H82.7055V21.2375C82.6818 21.5041 82.7153 21.7726 82.8037 22.0253C82.8921 22.278 83.0334 22.509 83.2182 22.703C83.403 22.8971 83.627 23.0497 83.8755 23.1507C84.124 23.2518 84.3912 23.2989 84.6594 23.2891C85.0117 23.322 85.3653 23.2407 85.6675 23.0571C85.9697 22.8735 86.2044 22.5976 86.3368 22.2704L87.7524 22.2704ZM82.7125 20.1086H86.3438C86.3572 19.869 86.3207 19.6291 86.2368 19.4041C86.1528 19.1792 86.0231 18.974 85.8558 18.8013C85.6885 18.6287 85.4873 18.4925 85.2647 18.4011C85.0421 18.3097 84.8029 18.2652 84.5623 18.2704C84.3195 18.2689 84.0788 18.3154 83.8541 18.4072C83.6295 18.499 83.4253 18.6343 83.2533 18.8052C83.0813 18.9761 82.945 19.1793 82.8522 19.403C82.7594 19.6267 82.7119 19.8665 82.7125 20.1086V20.1086Z" fill="black"/>
<path d="M30.3459 6.98521C30.6584 6.96285 30.9721 7.00993 31.2642 7.12308C31.5563 7.23623 31.8196 7.41261 32.0351 7.63951C32.2505 7.86641 32.4128 8.13817 32.5102 8.43519C32.6076 8.7322 32.6377 9.04707 32.5983 9.35709C32.5983 10.8821 31.7718 11.7587 30.3459 11.7587H28.6168V6.98521H30.3459ZM29.3603 11.0836H30.2628C30.4862 11.0969 30.7097 11.0604 30.9171 10.9767C31.1245 10.893 31.3106 10.7643 31.4618 10.5998C31.613 10.4354 31.7256 10.2394 31.7913 10.0261C31.8569 9.81277 31.8741 9.58755 31.8415 9.36681C31.8717 9.14695 31.8528 8.92313 31.7861 8.7114C31.7195 8.49967 31.6066 8.30527 31.4558 8.14212C31.3049 7.97898 31.1197 7.85113 30.9135 7.76774C30.7072 7.68435 30.485 7.64749 30.2628 7.65978H29.3603V11.0836Z" fill="black"/>
<path d="M33.4381 9.95547C33.4154 9.71873 33.4426 9.47988 33.5178 9.25422C33.5931 9.02857 33.7149 8.82109 33.8753 8.64511C34.0357 8.46912 34.2312 8.32851 34.4493 8.23229C34.6674 8.13607 34.9032 8.08636 35.1417 8.08636C35.3802 8.08636 35.616 8.13607 35.8341 8.23229C36.0522 8.32851 36.2477 8.46912 36.4081 8.64511C36.5686 8.82109 36.6903 9.02857 36.7656 9.25422C36.8409 9.47988 36.868 9.71873 36.8453 9.95547C36.8685 10.1924 36.8416 10.4316 36.7665 10.6576C36.6914 10.8837 36.5698 11.0915 36.4093 11.2679C36.2489 11.4442 36.0532 11.5851 35.8349 11.6815C35.6166 11.778 35.3805 11.8278 35.1417 11.8278C34.9029 11.8278 34.6668 11.778 34.4485 11.6815C34.2302 11.5851 34.0345 11.4442 33.8741 11.2679C33.7136 11.0915 33.592 10.8837 33.5169 10.6576C33.4418 10.4316 33.415 10.1924 33.4381 9.95547ZM36.112 9.95547C36.112 9.17461 35.7602 8.71797 35.1429 8.71797C34.5232 8.71797 34.1746 9.17461 34.1746 9.95548C34.1746 10.7426 34.5232 11.1957 35.1429 11.1957C35.7602 11.1957 36.112 10.7395 36.112 9.95547H36.112Z" fill="black"/>
<path d="M41.3744 11.758H40.6348L39.8882 9.10492H39.8318L39.0883 11.758H38.3558L37.36 8.1557H38.0832L38.7303 10.9045H38.7836L39.5263 8.1557H40.2102L40.9529 10.9045H41.0093L41.6533 8.1557H42.3662L41.3744 11.758Z" fill="black"/>
<path d="M43.2038 8.15646H43.8901V8.72872H43.9434C44.0337 8.52318 44.1862 8.35089 44.3794 8.23584C44.5727 8.1208 44.7971 8.06874 45.0214 8.08692C45.1972 8.07374 45.3737 8.10017 45.5378 8.16425C45.7019 8.22832 45.8495 8.32841 45.9696 8.45708C46.0897 8.58576 46.1792 8.73973 46.2315 8.90758C46.2838 9.07544 46.2976 9.25288 46.2718 9.42676V11.7588H45.5588V9.60529C45.5588 9.02638 45.3066 8.73849 44.7793 8.73849C44.66 8.73295 44.5408 8.7532 44.4301 8.79786C44.3193 8.84253 44.2196 8.91055 44.1376 8.99725C44.0557 9.08396 43.9935 9.18731 43.9554 9.30021C43.9173 9.41312 43.9041 9.53291 43.9167 9.65138V11.7588H43.2038L43.2038 8.15646Z" fill="black"/>
<path d="M47.4077 6.74988H48.1206V11.7585H47.4077V6.74988Z" fill="black"/>
<path d="M49.1117 9.95553C49.089 9.71878 49.1162 9.47992 49.1915 9.25425C49.2668 9.02859 49.3886 8.82111 49.549 8.64512C49.7094 8.46913 49.905 8.32851 50.1231 8.23229C50.3412 8.13607 50.577 8.08636 50.8155 8.08636C51.054 8.08636 51.2899 8.13607 51.508 8.23229C51.7261 8.32851 51.9216 8.46913 52.0821 8.64512C52.2425 8.82111 52.3642 9.02859 52.4395 9.25425C52.5148 9.47992 52.542 9.71878 52.5193 9.95553C52.5424 10.1925 52.5156 10.4317 52.4405 10.6577C52.3654 10.8837 52.2437 11.0916 52.0832 11.2679C51.9227 11.4442 51.7271 11.5852 51.5088 11.6816C51.2904 11.778 51.0543 11.8278 50.8155 11.8278C50.5768 11.8278 50.3406 11.778 50.1223 11.6816C49.904 11.5852 49.7083 11.4442 49.5479 11.2679C49.3874 11.0916 49.2657 10.8837 49.1906 10.6577C49.1155 10.4317 49.0886 10.1925 49.1117 9.95553ZM51.7856 9.95553C51.7856 9.17468 51.4339 8.71804 50.8165 8.71804C50.1968 8.71804 49.8482 9.17468 49.8482 9.95554C49.8482 10.7427 50.1968 11.1958 50.8165 11.1958C51.4339 11.1958 51.7856 10.7395 51.7856 9.95553H51.7856Z" fill="black"/>
<path d="M53.2697 10.7395C53.2697 10.091 53.7539 9.71722 54.6133 9.66409L55.5918 9.60785V9.29691C55.5918 8.91644 55.3396 8.7016 54.8523 8.7016C54.4543 8.7016 54.1785 8.8473 54.0994 9.10199H53.4092C53.482 8.48324 54.0657 8.08636 54.8852 8.08636C55.7908 8.08636 56.3016 8.53597 56.3016 9.29691V11.7582H55.6153V11.252H55.5589C55.4444 11.4336 55.2837 11.5816 55.093 11.681C54.9024 11.7804 54.6887 11.8275 54.4739 11.8176C54.3222 11.8333 54.1689 11.8172 54.0239 11.7702C53.8789 11.7233 53.7454 11.6465 53.6319 11.545C53.5185 11.4434 53.4276 11.3192 53.3652 11.1805C53.3029 11.0418 53.2703 10.8915 53.2697 10.7395ZM55.5918 10.4317V10.1305L54.7097 10.1867C54.2122 10.2199 53.9866 10.3887 53.9866 10.7063C53.9866 11.0305 54.2686 11.2192 54.6564 11.2192C54.7701 11.2306 54.8849 11.2192 54.994 11.1855C55.1031 11.1518 55.2043 11.0966 55.2916 11.0232C55.3788 10.9497 55.4504 10.8595 55.502 10.7578C55.5536 10.6562 55.5841 10.5453 55.5918 10.4317Z" fill="black"/>
<path d="M57.2387 9.95575C57.2387 8.81747 57.8255 8.09637 58.7382 8.09637C58.964 8.086 59.188 8.13992 59.3842 8.25184C59.5804 8.36375 59.7406 8.52904 59.846 8.72837H59.8993V6.74988H60.6122V11.7585H59.9291V11.1893H59.8726C59.759 11.3873 59.5933 11.5505 59.3933 11.6613C59.1934 11.7721 58.9668 11.8262 58.7382 11.8178C57.8192 11.8179 57.2387 11.0968 57.2387 9.95575ZM57.9752 9.95575C57.9752 10.7198 58.3363 11.1796 58.9404 11.1796C59.5413 11.1796 59.9126 10.7132 59.9126 9.95888C59.9126 9.20809 59.5374 8.73505 58.9404 8.73505C58.3402 8.73505 57.9751 9.19793 57.9751 9.95575H57.9752Z" fill="black"/>
<path d="M63.5619 9.95547C63.5392 9.71873 63.5663 9.47988 63.6416 9.25422C63.7169 9.02857 63.8387 8.82109 63.9991 8.64511C64.1595 8.46912 64.355 8.32851 64.5731 8.23229C64.7912 8.13607 65.027 8.08636 65.2655 8.08636C65.504 8.08636 65.7398 8.13607 65.9579 8.23229C66.176 8.32851 66.3715 8.46912 66.5319 8.64511C66.6923 8.82109 66.8141 9.02857 66.8894 9.25422C66.9646 9.47988 66.9918 9.71873 66.9691 9.95547C66.9922 10.1924 66.9654 10.4316 66.8903 10.6576C66.8152 10.8837 66.6936 11.0915 66.5331 11.2679C66.3727 11.4442 66.177 11.5851 65.9587 11.6815C65.7404 11.778 65.5043 11.8278 65.2655 11.8278C65.0267 11.8278 64.7906 11.778 64.5723 11.6815C64.354 11.5851 64.1583 11.4442 63.9979 11.2679C63.8374 11.0915 63.7157 10.8837 63.6407 10.6576C63.5656 10.4316 63.5388 10.1924 63.5619 9.95547ZM66.2358 9.95547C66.2358 9.17461 65.884 8.71797 65.2667 8.71797C64.647 8.71797 64.2984 9.17461 64.2984 9.95548C64.2984 10.7426 64.647 11.1957 65.2667 11.1957C65.884 11.1957 66.2358 10.7395 66.2358 9.95547Z" fill="black"/>
<path d="M67.9257 8.15646H68.612V8.72872H68.6653C68.7557 8.52318 68.9081 8.35089 69.1013 8.23584C69.2946 8.1208 69.519 8.06874 69.7433 8.08692C69.9191 8.07374 70.0956 8.10017 70.2597 8.16425C70.4239 8.22832 70.5714 8.32841 70.6915 8.45708C70.8116 8.58576 70.9011 8.73973 70.9534 8.90758C71.0057 9.07544 71.0195 9.25288 70.9937 9.42676V11.7588H70.2808V9.60529C70.2808 9.02638 70.0285 8.73849 69.5012 8.73849C69.3819 8.73295 69.2628 8.7532 69.152 8.79786C69.0412 8.84253 68.9415 8.91055 68.8596 8.99725C68.7776 9.08396 68.7155 9.18731 68.6773 9.30021C68.6392 9.41312 68.626 9.53291 68.6387 9.65138V11.7588H67.9257V8.15646Z" fill="black"/>
<path d="M75.0222 7.25897V8.17225H75.8049V8.77108H75.0222V10.6234C75.0222 11.0008 75.1781 11.166 75.533 11.166C75.6239 11.1657 75.7147 11.1602 75.8049 11.1496V11.7418C75.6769 11.7646 75.5472 11.7768 75.4171 11.7781C74.6243 11.7781 74.3085 11.5 74.3085 10.8055V8.77105H73.735V8.17222H74.3085V7.25897H75.0222Z" fill="black"/>
<path d="M76.7786 6.74988H77.4853V8.73504H77.5417C77.6365 8.52758 77.7931 8.35431 77.9902 8.23883C78.1873 8.12335 78.4153 8.07129 78.6432 8.08973C78.818 8.08024 78.9928 8.10935 79.1551 8.17498C79.3174 8.24062 79.4632 8.34115 79.582 8.46942C79.7008 8.59769 79.7898 8.75054 79.8426 8.91704C79.8953 9.08355 79.9106 9.25962 79.8873 9.43269V11.7585H79.1736V9.60808C79.1736 9.03269 78.9049 8.74128 78.4012 8.74128C78.2786 8.73126 78.1554 8.74805 78.04 8.7905C77.9247 8.83294 77.82 8.9 77.7334 8.98699C77.6468 9.07398 77.5802 9.1788 77.5385 9.29411C77.4967 9.40942 77.4807 9.53244 77.4916 9.65456V11.7585H76.7787L76.7786 6.74988Z" fill="black"/>
<path d="M84.0443 10.7856C83.9474 11.1149 83.7375 11.3997 83.4514 11.5902C83.1652 11.7807 82.821 11.8648 82.4789 11.8278C82.2409 11.8341 82.0044 11.7886 81.7858 11.6946C81.5672 11.6006 81.3717 11.4603 81.213 11.2833C81.0542 11.1064 80.9359 10.8972 80.8664 10.6701C80.7968 10.4431 80.7777 10.2036 80.8102 9.96846C80.7785 9.73255 80.798 9.4926 80.8674 9.26486C80.9368 9.03713 81.0544 8.82691 81.2124 8.64845C81.3703 8.47 81.5648 8.32746 81.7828 8.23049C82.0008 8.13353 82.2371 8.0844 82.4758 8.08643C83.481 8.08643 84.0873 8.77122 84.0873 9.90242V10.1505H81.5365V10.1903C81.5253 10.3225 81.542 10.4556 81.5854 10.581C81.6288 10.7064 81.698 10.8214 81.7886 10.9185C81.8792 11.0157 81.9891 11.0929 82.1114 11.1452C82.2336 11.1975 82.3655 11.2238 82.4985 11.2223C82.6691 11.2428 82.8418 11.2121 82.9949 11.1344C83.1479 11.0566 83.2743 10.9352 83.358 10.7856L84.0443 10.7856ZM81.5364 9.6247H83.3611C83.3701 9.5038 83.3536 9.38236 83.3127 9.26819C83.2718 9.15401 83.2074 9.04963 83.1237 8.96174C83.04 8.87386 82.9387 8.80441 82.8264 8.75787C82.7142 8.71133 82.5934 8.68873 82.4719 8.6915C82.3486 8.68996 82.2262 8.71305 82.112 8.7594C81.9978 8.80576 81.894 8.87445 81.8068 8.96142C81.7197 9.04839 81.6508 9.15188 81.6044 9.2658C81.5579 9.37971 81.5348 9.50175 81.5365 9.6247H81.5364Z" fill="black"/>
</g>
<defs>
<clipPath id="clip0_3270_28088">
<rect width="96" height="32" fill="white"/>
</clipPath>
</defs>
</svg>
