<svg width="108" height="32" viewBox="0 0 108 32" fill="none" xmlns="http://www.w3.org/2000/svg">
<g clip-path="url(#clip0_3270_28087)">
<path d="M104 0H4C1.79086 0 0 1.79086 0 4V28C0 30.2091 1.79086 32 4 32H104C106.209 32 108 30.2091 108 28V4C108 1.79086 106.209 0 104 0Z" fill="white"/>
<path d="M104 0.64C104.891 0.64 105.746 0.993999 106.376 1.62412C107.006 2.25424 107.36 3.10887 107.36 4V28C107.36 28.8911 107.006 29.7458 106.376 30.3759C105.746 31.006 104.891 31.36 104 31.36H4C3.10887 31.36 2.25424 31.006 1.62412 30.3759C0.993999 29.7458 0.64 28.8911 0.64 28V4C0.64 3.10887 0.993999 2.25424 1.62412 1.62412C2.25424 0.993999 3.10887 0.64 4 0.64H104ZM104 0H4C2.93913 0 1.92172 0.421427 1.17157 1.17157C0.421427 1.92172 0 2.93913 0 4V28C0 29.0609 0.421427 30.0783 1.17157 30.8284C1.92172 31.5786 2.93913 32 4 32H104C105.061 32 106.078 31.5786 106.828 30.8284C107.579 30.0783 108 29.0609 108 28V4C108 2.93913 107.579 1.92172 106.828 1.17157C106.078 0.421427 105.061 0 104 0Z" fill="black"/>
<path d="M37.936 8.19198C37.9491 8.48536 37.9027 8.77837 37.7996 9.05335C37.6965 9.32832 37.5388 9.57958 37.336 9.79198C37.1087 10.0266 36.8344 10.2106 36.5311 10.3319C36.2279 10.4533 35.9024 10.5092 35.576 10.496C35.2477 10.5033 34.9214 10.4432 34.6173 10.3193C34.3132 10.1955 34.0377 10.0106 33.808 9.77598C33.3418 9.29916 33.0808 8.65881 33.0808 7.99198C33.0808 7.32515 33.3418 6.68481 33.808 6.20798C34.1644 5.85973 34.6157 5.62457 35.1054 5.53205C35.595 5.43954 36.1011 5.49379 36.56 5.68798C36.8485 5.80657 37.1058 5.98997 37.312 6.22398L36.888 6.64798C36.7291 6.4566 36.5278 6.30489 36.3001 6.20491C36.0723 6.10492 35.8244 6.05941 35.576 6.07198C35.2624 6.07415 34.9541 6.1531 34.6781 6.30192C34.4021 6.45073 34.1667 6.6649 33.9925 6.92569C33.8184 7.18647 33.7108 7.48595 33.6791 7.79793C33.6474 8.10992 33.6926 8.42491 33.8108 8.71539C33.9289 9.00587 34.1164 9.26298 34.3569 9.46426C34.5974 9.66553 34.8835 9.80485 35.1902 9.87002C35.497 9.93519 35.815 9.92423 36.1165 9.83811C36.4181 9.75199 36.6939 9.59333 36.92 9.37598C37.1643 9.10807 37.306 8.76233 37.32 8.39998H35.576V7.82398H37.904C37.9222 7.94588 37.9329 8.06878 37.936 8.19198Z" fill="black" stroke="black" stroke-width="0.411304" stroke-miterlimit="10"/>
<path d="M41.6 6.19198H39.44V7.71198H41.408V8.28798H39.44V9.80798H41.6V10.4H38.816V5.59998H41.6V6.19198Z" fill="black" stroke="black" stroke-width="0.411304" stroke-miterlimit="10"/>
<path d="M44.224 10.4H43.608V6.19198H42.264V5.59998H45.6V6.19198H44.224V10.4Z" fill="black" stroke="black" stroke-width="0.411304" stroke-miterlimit="10"/>
<path d="M47.952 10.4V5.59998H48.568V10.4H47.952Z" fill="black" stroke="black" stroke-width="0.411304" stroke-miterlimit="10"/>
<path d="M51.304 10.4H50.688V6.19198H49.344V5.59998H52.64V6.19198H51.304V10.4Z" fill="black" stroke="black" stroke-width="0.411304" stroke-miterlimit="10"/>
<path d="M58.8879 9.77592C58.6569 10.0072 58.3825 10.1906 58.0805 10.3158C57.7785 10.4409 57.4548 10.5054 57.1279 10.5054C56.801 10.5054 56.4774 10.4409 56.1754 10.3158C55.8734 10.1906 55.599 10.0072 55.3679 9.77592C54.9157 9.29516 54.6639 8.65997 54.6639 7.99992C54.6639 7.33987 54.9157 6.70468 55.3679 6.22392C55.594 5.98616 55.8675 5.79851 56.1707 5.6731C56.4738 5.5477 56.8 5.48734 57.1279 5.49592C57.4555 5.49074 57.7806 5.55266 58.0833 5.67786C58.3859 5.80306 58.6598 5.98889 58.8879 6.22392C59.118 6.45791 59.2988 6.73563 59.4197 7.04066C59.5406 7.3457 59.5992 7.67187 59.5919 7.99992C59.6024 8.32838 59.5454 8.65549 59.4243 8.96099C59.3032 9.26648 59.1206 9.54386 58.8879 9.77592ZM55.8239 9.37592C55.9944 9.54862 56.1974 9.68575 56.4212 9.77935C56.6451 9.87294 56.8853 9.92114 57.1279 9.92114C57.3706 9.92114 57.6108 9.87294 57.8346 9.77935C58.0585 9.68575 58.2615 9.54862 58.4319 9.37592C58.7771 9.00082 58.9687 8.50968 58.9687 7.99992C58.9687 7.49016 58.7771 6.99902 58.4319 6.62392C58.2615 6.45122 58.0585 6.31409 57.8346 6.22049C57.6108 6.1269 57.3706 6.0787 57.1279 6.0787C56.8853 6.0787 56.6451 6.1269 56.4212 6.22049C56.1974 6.31409 55.9944 6.45122 55.8239 6.62392C55.4788 6.99902 55.2872 7.49016 55.2872 7.99992C55.2872 8.50968 55.4788 9.00082 55.8239 9.37592Z" fill="black" stroke="black" stroke-width="0.411304" stroke-miterlimit="10"/>
<path d="M60.4641 10.4V5.59998H61.2081L63.5441 9.33598V8.40798V5.59998H64.16V10.4H63.5201L61.08 6.48798V7.40798V10.4H60.4641Z" fill="black" stroke="black" stroke-width="0.411304" stroke-miterlimit="10"/>
<path d="M54.512 17.4C53.838 17.4016 53.1795 17.603 52.62 17.9788C52.0604 18.3546 51.6249 18.8879 51.3684 19.5112C51.1119 20.1345 51.046 20.8199 51.1791 21.4807C51.3121 22.1415 51.6381 22.748 52.1159 23.2234C52.5936 23.6989 53.2016 24.0221 53.863 24.152C54.5244 24.282 55.2095 24.2129 55.8316 23.9535C56.4537 23.6941 56.9849 23.256 57.3581 22.6947C57.7313 22.1334 57.9296 21.474 57.928 20.8C57.9345 20.3503 57.8505 19.904 57.6809 19.4875C57.5114 19.071 57.2597 18.6928 56.941 18.3756C56.6223 18.0584 56.243 17.8085 55.8257 17.6409C55.4084 17.4733 54.9616 17.3914 54.512 17.4V17.4ZM54.512 22.864C54.0989 22.8929 53.6866 22.7968 53.3288 22.5883C52.971 22.3798 52.6841 22.0684 52.5056 21.6947C52.3271 21.321 52.2651 20.9023 52.3277 20.4929C52.3904 20.0835 52.5747 19.7025 52.8568 19.3992C53.1389 19.096 53.5056 18.8846 53.9094 18.7926C54.3132 18.7006 54.7353 18.7322 55.121 18.8833C55.5066 19.0343 55.8378 19.2979 56.0716 19.6398C56.3054 19.9816 56.431 20.3858 56.432 20.8C56.4449 21.0624 56.4051 21.3247 56.315 21.5715C56.2249 21.8183 56.0863 22.0446 55.9073 22.2369C55.7284 22.4293 55.5127 22.5839 55.2731 22.6916C55.0334 22.7993 54.7747 22.8579 54.512 22.864ZM47.056 17.4C46.382 17.4016 45.7235 17.603 45.164 17.9788C44.6044 18.3546 44.1689 18.8879 43.9124 19.5112C43.6559 20.1345 43.59 20.8199 43.7231 21.4807C43.8561 22.1415 44.1821 22.748 44.6599 23.2234C45.1376 23.6989 45.7456 24.0221 46.407 24.152C47.0684 24.282 47.7535 24.2129 48.3756 23.9535C48.9977 23.6941 49.5289 23.256 49.9021 22.6947C50.2753 22.1334 50.4736 21.474 50.472 20.8C50.4785 20.3503 50.3945 19.904 50.2249 19.4875C50.0554 19.071 49.8037 18.6928 49.485 18.3756C49.1663 18.0584 48.787 17.8085 48.3697 17.6409C47.9524 17.4733 47.5056 17.3914 47.056 17.4V17.4ZM47.056 22.864C46.6429 22.8929 46.2306 22.7968 45.8728 22.5883C45.515 22.3798 45.2281 22.0684 45.0496 21.6947C44.8711 21.321 44.8091 20.9023 44.8717 20.4929C44.9344 20.0835 45.1187 19.7025 45.4008 19.3992C45.6829 19.096 46.0496 18.8846 46.4534 18.7926C46.8572 18.7006 47.2793 18.7322 47.665 18.8833C48.0506 19.0343 48.3818 19.2979 48.6156 19.6398C48.8494 19.9816 48.975 20.3858 48.976 20.8C48.9889 21.0624 48.9491 21.3247 48.859 21.5715C48.7689 21.8183 48.6303 22.0446 48.4513 22.2369C48.2724 22.4293 48.0567 22.5839 47.8171 22.6916C47.5774 22.7993 47.3187 22.8579 47.056 22.864ZM38.192 18.448V19.888H41.648C41.5938 20.5662 41.3119 21.2062 40.848 21.704C40.5013 22.0572 40.0844 22.3337 39.6241 22.5156C39.1638 22.6975 38.6705 22.7808 38.176 22.76C37.1576 22.76 36.1809 22.3554 35.4607 21.6353C34.7406 20.9151 34.336 19.9384 34.336 18.92C34.336 17.9016 34.7406 16.9248 35.4607 16.2047C36.1809 15.4846 37.1576 15.08 38.176 15.08C39.1524 15.0655 40.0951 15.4362 40.8 16.112L41.816 15.096C41.3392 14.6244 40.7731 14.2527 40.1508 14.0027C39.5285 13.7527 38.8626 13.6294 38.192 13.64C37.4808 13.6123 36.7713 13.7285 36.1061 13.9816C35.4409 14.2346 34.8336 14.6194 34.3206 15.1128C33.8076 15.6062 33.3996 16.1981 33.1208 16.8529C32.842 17.5078 32.6984 18.2122 32.6984 18.924C32.6984 19.6357 32.842 20.3401 33.1208 20.995C33.3996 21.6499 33.8076 22.2418 34.3206 22.7352C34.8336 23.2286 35.4409 23.6133 36.1061 23.8664C36.7713 24.1195 37.4808 24.2357 38.192 24.208C38.8763 24.2353 39.5587 24.1176 40.1943 23.8625C40.8299 23.6074 41.4044 23.2208 41.88 22.728C42.7201 21.8051 43.1677 20.5913 43.128 19.344C43.1309 19.0438 43.1068 18.7439 43.056 18.448H38.192ZM74.44 19.568C74.2314 18.9542 73.8412 18.4182 73.3212 18.0311C72.8012 17.6439 72.1759 17.4238 71.528 17.4C71.0904 17.3991 70.6573 17.488 70.2554 17.6612C69.8535 17.8344 69.4914 18.0882 69.1915 18.4068C68.8916 18.7255 68.6602 19.1023 68.5117 19.5139C68.3632 19.9255 68.3007 20.3632 68.328 20.8C68.3212 21.5303 68.5508 22.2432 68.9825 22.8322C69.4142 23.4212 70.0249 23.8548 70.7234 24.0681C71.4219 24.2814 72.1706 24.2631 72.8578 24.0158C73.5449 23.7684 74.1337 23.3055 74.536 22.696L73.376 21.896C73.2031 22.1842 72.9578 22.4222 72.6645 22.5864C72.3712 22.7506 72.0401 22.8353 71.704 22.832C71.3573 22.8463 71.0143 22.7554 70.7202 22.5712C70.4261 22.387 70.1945 22.1182 70.056 21.8L74.608 19.92L74.44 19.568ZM69.8 20.704C69.7838 20.4555 69.8173 20.2063 69.8986 19.9709C69.9799 19.7355 70.1074 19.5187 70.2735 19.3332C70.4397 19.1477 70.6411 18.9972 70.8662 18.8905C71.0912 18.7839 71.3352 18.7232 71.584 18.712C71.8418 18.6963 72.0984 18.7569 72.3219 18.8864C72.5453 19.0159 72.7255 19.2085 72.84 19.44L69.8 20.704ZM66.104 24H67.6V14H66.104V24ZM63.656 18.16H63.6C63.3765 17.9055 63.1007 17.7022 62.7914 17.5642C62.4821 17.4261 62.1467 17.3564 61.808 17.36C60.9338 17.4024 60.1093 17.7795 59.5056 18.4133C58.9018 19.047 58.5651 19.8887 58.5651 20.764C58.5651 21.6393 58.9018 22.481 59.5056 23.1147C60.1093 23.7485 60.9338 24.1256 61.808 24.168C62.1472 24.1748 62.4837 24.1066 62.7934 23.9683C63.1032 23.83 63.3786 23.625 63.6 23.368H63.656V23.856C63.656 25.16 62.96 25.856 61.84 25.856C61.4659 25.8478 61.1026 25.7285 60.7964 25.5135C60.4901 25.2984 60.2547 24.9971 60.12 24.648L58.824 25.184C59.0636 25.7858 59.4802 26.3007 60.0187 26.6607C60.5572 27.0206 61.1923 27.2087 61.84 27.2C63.592 27.2 65.04 26.168 65.04 23.656V17.6H63.656V18.16ZM61.936 22.864C61.4118 22.8313 60.9199 22.6001 60.5602 22.2173C60.2006 21.8346 60.0004 21.3292 60.0004 20.804C60.0004 20.2788 60.2006 19.7734 60.5602 19.3907C60.9199 19.0079 61.4118 18.7767 61.936 18.744C62.1922 18.755 62.4435 18.8175 62.6751 18.9277C62.9066 19.0379 63.1137 19.1935 63.2838 19.3853C63.454 19.5771 63.5839 19.8012 63.6657 20.0443C63.7475 20.2873 63.7796 20.5443 63.76 20.8C63.7818 21.0565 63.7514 21.3149 63.6705 21.5593C63.5897 21.8038 63.4601 22.0293 63.2896 22.2222C63.1191 22.4152 62.9112 22.5715 62.6786 22.6818C62.4459 22.7921 62.1933 22.8541 61.936 22.864V22.864ZM81.448 14H77.864V24H79.36V20.208H81.448C81.8744 20.2386 82.3025 20.1811 82.7056 20.039C83.1088 19.8969 83.4783 19.6732 83.7912 19.382C84.1041 19.0908 84.3537 18.7382 84.5243 18.3463C84.6949 17.9543 84.783 17.5314 84.783 17.104C84.783 16.6765 84.6949 16.2536 84.5243 15.8617C84.3537 15.4698 84.1041 15.1172 83.7912 14.826C83.4783 14.5348 83.1088 14.3111 82.7056 14.169C82.3025 14.0269 81.8744 13.9694 81.448 14V14ZM81.448 18.8H79.36V15.392H81.48C81.7048 15.392 81.9275 15.4363 82.1352 15.5223C82.3429 15.6083 82.5316 15.7344 82.6906 15.8934C82.8495 16.0524 82.9756 16.2411 83.0617 16.4488C83.1477 16.6565 83.192 16.8792 83.192 17.104C83.192 17.3288 83.1477 17.5514 83.0617 17.7591C82.9756 17.9669 82.8495 18.1556 82.6906 18.3146C82.5316 18.4735 82.3429 18.5996 82.1352 18.6857C81.9275 18.7717 81.7048 18.816 81.48 18.816L81.448 18.8ZM90.68 17.368C90.1352 17.3344 89.5925 17.4612 89.119 17.7328C88.6456 18.0044 88.2621 18.4088 88.016 18.896L89.336 19.448C89.4694 19.2075 89.6695 19.0108 89.9123 18.8816C90.1551 18.7524 90.43 18.6963 90.704 18.72C90.8939 18.6978 91.0863 18.7137 91.2701 18.7666C91.4538 18.8196 91.6251 18.9087 91.774 19.0286C91.923 19.1485 92.0465 19.2968 92.1375 19.465C92.2285 19.6331 92.2851 19.8177 92.304 20.008V20.104C91.8229 19.8511 91.2875 19.7193 90.744 19.72C89.32 19.72 87.864 20.52 87.864 21.976C87.8781 22.2855 87.9542 22.589 88.0879 22.8684C88.2216 23.1479 88.41 23.3977 88.6421 23.6029C88.8742 23.8081 89.1451 23.9646 89.4389 24.063C89.7326 24.1615 90.0431 24.1999 90.352 24.176C90.7274 24.1968 91.1016 24.1173 91.4362 23.9458C91.7707 23.7743 92.0537 23.5169 92.256 23.2H92.304V24H93.744V20.152C93.744 18.4 92.416 17.384 90.712 17.384L90.68 17.368ZM90.496 22.848C90.008 22.848 89.328 22.6 89.328 22C89.328 21.2 90.176 20.928 90.928 20.928C91.4032 20.9163 91.8729 21.0323 92.288 21.264C92.2378 21.6984 92.0318 22.1 91.7082 22.3942C91.3845 22.6884 90.9653 22.8553 90.528 22.864L90.496 22.848ZM98.992 17.6L97.28 21.936H97.232L95.456 17.6H93.856L96.52 23.664L95 27.032H96.56L100.656 17.6H98.992ZM85.552 24H87.04V14H85.552V24Z" fill="black"/>
<path d="M8.35198 6.03201C8.08835 6.34371 7.95384 6.74438 7.97597 7.15201V24.848C7.94875 25.2563 8.08389 25.6588 8.35198 25.968L8.40798 26.032L18.32 16.12V15.88L8.40798 5.97601L8.35198 6.03201Z" fill="url(#paint0_linear_3270_28087)"/>
<path d="M21.6001 19.424L18.3201 16.12V15.88L21.6001 12.576L21.6721 12.624L25.6001 14.848C26.7201 15.48 26.7201 16.52 25.6001 17.16L21.6881 19.384L21.6001 19.424Z" fill="url(#paint1_linear_3270_28087)"/>
<path d="M21.696 19.3761L18.32 16.0001L8.35199 25.9681C8.57805 26.1693 8.8674 26.285 9.16987 26.2953C9.47234 26.3055 9.76885 26.2095 10.008 26.0241L21.696 19.3761" fill="url(#paint2_linear_3270_28087)"/>
<path d="M21.696 12.624L10.008 5.98399C9.77041 5.79592 9.47413 5.69763 9.17125 5.70641C8.86837 5.71519 8.57828 5.83047 8.35199 6.03199L18.32 16L21.696 12.624Z" fill="url(#paint3_linear_3270_28087)"/>
<path opacity="0.2" d="M21.6 19.304L10.008 25.904C9.77754 26.0779 9.4967 26.172 9.20799 26.172C8.91928 26.172 8.63843 26.0779 8.40799 25.904V25.904L8.35199 25.96L8.40799 26.024C8.63843 26.1979 8.91928 26.292 9.20799 26.292C9.4967 26.292 9.77754 26.1979 10.008 26.024L21.696 19.376L21.6 19.304Z" fill="black"/>
<path opacity="0.12" d="M8.35195 25.856C8.09499 25.5387 7.96906 25.1351 7.99995 24.728V24.848C7.97273 25.2563 8.10787 25.6588 8.37595 25.968L8.43195 25.912L8.35195 25.856Z" fill="black"/>
<path opacity="0.12" d="M25.6 17.0401L21.6 19.3041L21.672 19.3761L25.6 17.1521C25.8318 17.054 26.033 16.8953 26.1822 16.6925C26.3314 16.4898 26.4233 16.2506 26.448 16.0001C26.398 16.2277 26.2952 16.4404 26.1479 16.6211C26.0006 16.8017 25.8129 16.9452 25.6 17.0401Z" fill="black"/>
<path opacity="0.25" d="M10.0081 6.09606L25.6001 14.9601C25.813 15.0549 26.0007 15.1984 26.148 15.379C26.2953 15.5597 26.3981 15.7724 26.4481 16.0001C26.4234 15.7495 26.3315 15.5103 26.1823 15.3076C26.0331 15.1048 25.8319 14.9461 25.6001 14.8481L10.0081 5.98406C8.89607 5.34406 7.97607 5.87206 7.97607 7.15206V7.27206C8.00007 5.99206 8.89607 5.46406 10.0081 6.09606Z" fill="white"/>
</g>
<defs>
<linearGradient id="paint0_linear_3270_28087" x1="17.44" y1="6.96801" x2="4.01597" y2="20.392" gradientUnits="userSpaceOnUse">
<stop stop-color="#00A0FF"/>
<stop offset="0.01" stop-color="#00A1FF"/>
<stop offset="0.26" stop-color="#00BEFF"/>
<stop offset="0.51" stop-color="#00D2FF"/>
<stop offset="0.76" stop-color="#00DFFF"/>
<stop offset="1" stop-color="#00E3FF"/>
</linearGradient>
<linearGradient id="paint1_linear_3270_28087" x1="27.0641" y1="16" x2="7.71207" y2="16" gradientUnits="userSpaceOnUse">
<stop stop-color="#FFE000"/>
<stop offset="0.41" stop-color="#FFBD00"/>
<stop offset="0.78" stop-color="#FFA500"/>
<stop offset="1" stop-color="#FF9C00"/>
</linearGradient>
<linearGradient id="paint2_linear_3270_28087" x1="19.864" y1="17.8401" x2="1.65599" y2="36.0401" gradientUnits="userSpaceOnUse">
<stop stop-color="#FF3A44"/>
<stop offset="1" stop-color="#C31162"/>
</linearGradient>
<linearGradient id="paint3_linear_3270_28087" x1="5.83999" y1="0.143988" x2="13.968" y2="8.27199" gradientUnits="userSpaceOnUse">
<stop stop-color="#32A071"/>
<stop offset="0.07" stop-color="#2DA771"/>
<stop offset="0.48" stop-color="#15CF74"/>
<stop offset="0.8" stop-color="#06E775"/>
<stop offset="1" stop-color="#00F076"/>
</linearGradient>
<clipPath id="clip0_3270_28087">
<rect width="108" height="32" fill="white"/>
</clipPath>
</defs>
</svg>
