<svg width="40" height="40" viewBox="0 0 40 40" fill="none" xmlns="http://www.w3.org/2000/svg">
<path fill-rule="evenodd" clip-rule="evenodd" d="M19.9972 5C20.9346 5 21.5626 5.70232 21.9013 6.38834L21.9019 6.38954L22.8724 8.34668C22.8747 8.34891 22.8774 8.35151 22.8806 8.35441C22.8872 8.36049 22.8951 8.36699 22.9037 8.37345C22.9124 8.37991 22.921 8.38562 22.9289 8.39038C22.9333 8.39303 22.9372 8.39517 22.9404 8.39686L24.6918 8.69024C25.4455 8.81691 26.2656 9.22091 26.543 10.0909C26.8199 10.9596 26.387 11.7639 25.846 12.3062L25.8447 12.3074L24.4834 13.68C24.4786 13.6899 24.4724 13.7052 24.4668 13.7246C24.4607 13.7462 24.4578 13.7647 24.4568 13.7769L24.8465 15.4761C25.0223 16.2455 25.0392 17.3143 24.2097 17.9241C23.3757 18.5371 22.3598 18.1928 21.6828 17.7896L20.0408 16.8096C20.0378 16.8091 20.0344 16.8086 20.0304 16.8081C20.0213 16.8071 20.011 16.8065 20 16.8065C19.989 16.8065 19.9784 16.8071 19.969 16.8082C19.9655 16.8086 19.9624 16.809 19.9596 16.8094C19.9573 16.8098 19.9553 16.8101 19.9535 16.8105L18.3141 17.789C17.6347 18.1955 16.6209 18.5345 15.7879 17.9217C14.9603 17.3128 14.9723 16.2474 15.1495 15.4752L15.539 13.7769C15.538 13.7647 15.5351 13.7463 15.529 13.7247C15.5235 13.7053 15.5173 13.69 15.5125 13.6802L14.1484 12.3049C13.6109 11.7628 13.1798 10.9596 13.4543 10.0928C13.7301 9.22196 14.5497 8.817 15.3046 8.69015L17.0499 8.39777L17.0598 8.39205C17.0678 8.38722 17.0765 8.38142 17.0853 8.37484C17.0941 8.36825 17.1021 8.36161 17.1089 8.35538C17.1124 8.3522 17.1153 8.34936 17.1177 8.34696L18.0903 6.38564C18.4317 5.70079 19.0611 5 19.9972 5ZM19.9634 7.3195L19.9639 7.31853C19.9746 7.29709 19.9851 7.27713 19.9954 7.25858C20.005 7.27628 20.0149 7.29526 20.0249 7.31559L20.0662 7.39874L21.0066 9.29515C21.1665 9.62192 21.4181 9.87692 21.6543 10.0527C21.8919 10.2294 22.2087 10.3963 22.5651 10.4562L24.3455 10.7544C24.3724 10.7589 24.3971 10.7639 24.4198 10.769C24.4033 10.7877 24.3847 10.8075 24.3638 10.8284L24.3612 10.831L22.977 12.2266C22.704 12.502 22.5402 12.8473 22.4534 13.1531C22.3663 13.4597 22.3256 13.836 22.4085 14.209L22.8062 15.9429C22.8133 15.9742 22.8195 16.0039 22.8247 16.032C22.8023 16.0197 22.7789 16.0063 22.7546 15.9918L21.0867 14.9964C20.7347 14.7862 20.3375 14.7134 20 14.7134C19.6615 14.7134 19.2667 14.7865 18.9159 14.9923L17.2394 15.9929C17.2156 16.0072 17.1928 16.0203 17.1708 16.0324C17.1761 16.0043 17.1823 15.9745 17.1895 15.9433L17.5858 14.2158L17.5873 14.209C17.6702 13.836 17.6295 13.4597 17.5424 13.153C17.4556 12.8471 17.2917 12.5018 17.0186 12.2264L15.6345 10.831C15.6128 10.8091 15.5935 10.7883 15.5765 10.7689C15.599 10.7638 15.6242 10.7588 15.6509 10.7543L17.4306 10.4562L17.4342 10.4556C17.7889 10.3949 18.1034 10.2269 18.3384 10.0513C18.5725 9.87625 18.8238 9.62172 18.9837 9.29519L19.9634 7.3195Z" fill="#2563EB"/>
<path fill-rule="evenodd" clip-rule="evenodd" d="M19.9293 20.3491C19.0016 20.3491 18.2023 20.349 17.5621 20.4351C16.8762 20.5273 16.2185 20.7353 15.6851 21.2687C15.1518 21.8021 14.9438 22.4596 14.8516 23.1456C14.848 23.172 14.8446 23.1987 14.8414 23.2256C14.7909 23.2169 14.7406 23.2092 14.6906 23.2025C14.2402 23.142 13.6865 23.142 13.0825 23.1421L12.2535 23.1421C11.3258 23.142 10.5265 23.142 9.88636 23.2281C9.20037 23.3203 8.54272 23.5283 8.00935 24.0616C7.47603 24.595 7.26804 25.2526 7.17581 25.9386C7.08975 26.5787 7.08979 27.3781 7.08985 28.3058L7.08985 32.9104H6.04651C5.46854 32.9104 5 33.3789 5 33.9569C5 34.5349 5.46854 35.0034 6.04651 35.0034H33.9535C34.5315 35.0034 35 34.5349 35 33.9569C35 33.3789 34.5315 32.9104 33.9535 32.9104H32.912L32.912 31.0963C32.912 30.1686 32.9121 29.3693 32.826 28.7291C32.7338 28.0431 32.5257 27.3854 31.9924 26.852C31.459 26.3188 30.8015 26.1108 30.1155 26.0186C29.4754 25.9325 28.676 25.9326 27.7484 25.9326L26.9193 25.9326C26.3154 25.9326 25.7617 25.9325 25.3112 25.993C25.2845 25.9966 25.2576 26.0005 25.2307 26.0047V25.5128C25.2308 24.5851 25.2308 23.7857 25.1448 23.1456C25.0526 22.4596 24.8444 21.8019 24.3112 21.2685C23.7778 20.7353 23.1202 20.5273 22.4342 20.4351C21.7941 20.349 20.9948 20.3491 20.0671 20.3491H19.9293ZM17.1652 22.7486C17.2449 22.6689 17.3872 22.5704 17.841 22.5094C18.325 22.4444 18.982 22.4421 19.9982 22.4421C21.0144 22.4421 21.6713 22.4444 22.1554 22.5094C22.6093 22.5705 22.7516 22.669 22.8313 22.7487C22.911 22.8284 23.0095 22.9709 23.0704 23.4245C23.1355 23.9085 23.1377 24.5655 23.1377 25.5817V32.9073H16.8587V25.5817C16.8587 24.5654 16.8609 23.9085 16.926 23.4245C16.987 22.9708 17.0855 22.8283 17.1652 22.7486ZM13.0201 25.2351C13.7074 25.2351 14.1177 25.2373 14.4117 25.2769C14.5464 25.295 14.6139 25.3163 14.6443 25.3288C14.6514 25.3317 14.656 25.334 14.6587 25.3354L14.6621 25.3373L14.664 25.3407C14.6654 25.3434 14.6677 25.348 14.6706 25.3551C14.6831 25.3855 14.7044 25.453 14.7225 25.5877C14.762 25.8817 14.7643 26.292 14.7643 26.9793V32.9095H9.18287V28.3747C9.18287 27.3584 9.18509 26.7015 9.25017 26.2175C9.31117 25.7637 9.40974 25.6213 9.48944 25.5415C9.56912 25.4619 9.71145 25.3634 10.1652 25.3024C10.6493 25.2373 11.3062 25.2351 12.3224 25.2351H13.0201ZM25.3432 28.1259L25.3399 28.1276L25.3378 28.1313C25.3364 28.134 25.3342 28.1386 25.3313 28.1456C25.3188 28.176 25.2974 28.2435 25.2793 28.3782C25.2398 28.6722 25.2376 29.0825 25.2376 29.7698V32.9094H30.819V31.1652C30.819 30.149 30.8167 29.492 30.7517 29.008C30.6907 28.5544 30.5923 28.4119 30.5126 28.3322C30.4328 28.2525 30.2902 28.1539 29.8366 28.0929C29.3526 28.0279 28.6957 28.0257 27.6794 28.0257H26.9818C26.2944 28.0257 25.8842 28.0279 25.5901 28.0674C25.4554 28.0855 25.3879 28.1069 25.3575 28.1194L25.3515 28.122C25.3477 28.1236 25.345 28.125 25.3432 28.1259Z" fill="#2563EB"/>
</svg>
