<svg width="39" height="13" viewBox="0 0 39 13" fill="none" xmlns="http://www.w3.org/2000/svg">
<path d="M16.7822 0.526016V4.63008C16.9708 4.63008 17.1594 4.61057 17.3415 4.56504C17.7903 4.46098 18.1936 4.23333 18.5123 3.91463C18.9546 3.47236 19.2277 2.86098 19.2277 2.19106V0.526016H16.7887H16.7822ZM17.6993 5.37805C17.1399 5.82683 16.7757 6.51626 16.7757 7.29024V12.5H19.2147V4.84471C18.6424 4.84471 18.109 5.04634 17.6928 5.37805H17.6993ZM27.4554 6.08049C27.3838 6.04797 27.3058 6.02195 27.2342 5.98943C26.7074 5.79431 26.148 5.66423 25.6082 5.54065C25.2895 5.46911 24.9643 5.39106 24.6521 5.3065C24.1578 5.16992 23.6765 5.02683 23.2277 4.8187C22.7724 4.61057 22.5708 4.22032 22.6228 3.67398C22.6619 3.33577 22.8505 3.07561 23.0976 2.88699C23.2602 2.76341 23.4554 2.67236 23.631 2.61382C23.9367 2.52276 24.2749 2.47073 24.6001 2.47073C24.9253 2.47073 25.322 2.50976 25.7318 2.69837C25.9529 2.79593 26.1611 2.94553 26.3367 3.14715C26.5123 3.34878 26.6554 3.60244 26.7659 3.90813C26.7659 3.92114 26.7789 3.94715 26.7854 3.98618C26.896 4.40894 26.935 4.53902 27.1237 4.53902H27.1627L27.1822 4.53252C27.2082 4.53252 27.2407 4.51951 27.2667 4.51951C27.5724 4.46748 27.8781 4.40894 28.1968 4.35041L28.8928 4.22032L29.1074 4.16829L29.0684 3.96016C29.0619 3.92764 29.0554 3.89512 29.0489 3.8626C29.0424 3.81057 28.9968 3.58293 28.9123 3.29024C28.7692 2.82845 28.509 2.19756 28.0602 1.76829C27.8391 1.56016 27.5724 1.36504 27.2798 1.19593C27.2212 1.16341 27.1562 1.12439 27.0911 1.09187L27.0651 1.07886H27.0521C26.6554 0.877235 26.2261 0.727641 25.7708 0.636584C25.6017 0.604063 25.4456 0.578049 25.296 0.565041C25.1009 0.545528 24.8993 0.53252 24.6976 0.53252C24.1838 0.53252 23.67 0.597561 23.1692 0.721138C21.9724 1.02683 20.9188 1.69675 20.457 2.71138C20.3399 2.96504 20.2619 3.24471 20.2228 3.55041C20.1708 4.01219 20.2359 4.46748 20.405 4.89675C20.6781 5.56666 21.2115 6.16504 21.9594 6.59431C22.1546 6.70488 22.3627 6.80894 22.5903 6.8935C22.8245 6.97154 23.0846 7.04959 23.4098 7.14065C23.5594 7.18618 23.709 7.2252 23.8651 7.26423C24.0798 7.32276 24.3009 7.3813 24.5155 7.44634C24.7302 7.50488 24.9448 7.55691 25.1529 7.60894C25.4846 7.68699 25.7968 7.75853 26.096 7.87561C26.1806 7.90813 26.2651 7.94715 26.3367 7.98618C26.8375 8.24634 27.0651 8.63658 27.0066 9.1439C26.9546 9.6317 26.6293 9.97642 26.1936 10.1846C25.8228 10.3667 25.3741 10.4512 24.9318 10.4512C24.4895 10.4512 24.5741 10.4382 24.405 10.4057C24.0017 10.3341 23.6635 10.2301 23.3773 10.1065C22.1676 9.57317 21.9399 8.6691 21.8554 8.32439C21.8294 8.22032 21.8163 8.16829 21.7773 8.11626L21.6928 8.00569L21.4261 8.06423C20.9903 8.16179 20.5741 8.25284 20.1643 8.3439L19.735 8.43496L19.7676 8.64309C19.8326 9.04634 19.9302 9.42358 20.0602 9.77479C20.0863 9.84634 20.1123 9.91138 20.1448 9.97642C20.5871 10.952 21.4326 11.674 22.6163 12.0837C22.6293 12.0837 22.6424 12.0967 22.6554 12.0967C22.6749 12.1033 22.6944 12.1098 22.7009 12.1098C22.87 12.1618 23.0456 12.2008 23.2147 12.2398C23.4749 12.2984 23.735 12.3439 23.9887 12.3699C24.2033 12.3959 24.431 12.4089 24.6586 12.4089C26.792 12.4089 29.1854 11.4268 29.4001 9.28049C29.4066 9.21545 29.4131 9.1439 29.4131 9.07886C29.4131 9.05935 29.4131 9.03983 29.4131 9.01382V8.99431C29.4326 7.63496 28.7692 6.65935 27.4424 6.1L27.4554 6.08049ZM15.5399 1.53415C15.5399 1.52764 15.5399 1.52114 15.5399 1.51463C15.5269 1.44309 15.5074 1.37154 15.4814 1.3065C15.4814 1.3065 15.4814 1.29349 15.4749 1.28699C15.4489 1.22195 15.4163 1.15691 15.3773 1.09837C15.3773 1.09187 15.3708 1.08537 15.3643 1.07886C15.3253 1.02032 15.2798 0.961788 15.2342 0.909755C15.2277 0.903251 15.2212 0.896748 15.2147 0.890244C15.1627 0.838211 15.1041 0.786178 15.0391 0.740649C14.909 0.649592 14.7594 0.584552 14.5968 0.552032C14.5253 0.539024 14.4472 0.53252 14.3757 0.53252C14.3041 0.53252 14.3627 0.53252 14.3562 0.53252H14.3497C14.2781 0.53252 14.2131 0.539024 14.1415 0.552032C14.135 0.552032 14.1285 0.552032 14.122 0.552032C14.0505 0.56504 13.9854 0.584552 13.9139 0.610568C13.9074 0.610568 13.9009 0.610568 13.8944 0.617072C13.8684 0.623576 13.8489 0.636585 13.8228 0.649593C13.7838 0.669105 13.7448 0.688617 13.7058 0.714633C13.6993 0.714633 13.6928 0.721138 13.6798 0.727642C13.6212 0.766667 13.5692 0.812195 13.5107 0.857724C13.5041 0.864228 13.4976 0.870731 13.4911 0.877235C13.4391 0.929267 13.3871 0.987805 13.3415 1.05285C13.3415 1.05285 13.3415 1.05284 13.3415 1.05935H13.335V1.07236L12.6066 2.13252L10.1676 5.67073L8.99683 7.36829V1.74878C8.99683 1.67723 8.99033 1.6122 8.97732 1.54065C8.97732 1.53415 8.97732 1.52764 8.97732 1.52114C8.96431 1.44959 8.9448 1.37805 8.91878 1.31301C8.91878 1.31301 8.91878 1.3 8.91228 1.29349C8.88626 1.22845 8.85374 1.16341 8.81472 1.10488C8.81472 1.09837 8.80821 1.09187 8.80171 1.08537C8.76269 1.02683 8.71716 0.968292 8.67163 0.91626C8.67163 0.909756 8.65862 0.90325 8.65862 0.896746C8.60659 0.844714 8.54805 0.792682 8.48301 0.747154C8.35293 0.656097 8.20333 0.591057 8.04073 0.558536C7.96919 0.545528 7.89114 0.539023 7.8196 0.539023C7.74805 0.539023 7.80659 0.539023 7.80008 0.539023H7.79358C7.72203 0.539023 7.65049 0.545528 7.58545 0.558536C7.57894 0.558536 7.57244 0.558536 7.56594 0.558536C7.49439 0.571544 7.42285 0.591056 7.35781 0.617072C7.3513 0.617072 7.3448 0.617073 7.3383 0.623577C7.27325 0.649593 7.21472 0.682113 7.14968 0.721138C7.14317 0.721138 7.13667 0.727641 7.12366 0.734145C7.06512 0.773169 7.00659 0.818698 6.95455 0.864226C6.94805 0.87073 6.94155 0.877235 6.93504 0.883739C6.87651 0.935772 6.83098 0.994307 6.78545 1.05935C6.78545 1.05935 6.78545 1.05935 6.78545 1.06585H6.77895V1.07886L6.05049 2.13902L3.61146 5.67723L2.44073 7.3748L0.216343 10.6008C0.0732539 10.8024 0.00170898 11.0431 0.00170898 11.2902C0.00170898 11.5374 0.00821325 11.4333 0.0212214 11.4984C0.0212214 11.5049 0.0212214 11.5114 0.0212214 11.5179C0.0342295 11.5894 0.0537423 11.661 0.0797586 11.726C0.0797586 11.726 0.079758 11.739 0.086262 11.7455C0.112278 11.8106 0.144799 11.8756 0.183823 11.9341C0.183823 11.9406 0.190327 11.9472 0.196831 11.9537C0.235855 12.0122 0.281384 12.0707 0.326912 12.1228C0.333416 12.1293 0.339921 12.1358 0.346425 12.1423C0.398457 12.1943 0.456994 12.2463 0.522034 12.2919C0.567563 12.3244 0.619596 12.3504 0.665124 12.3764C0.678133 12.3764 0.684637 12.3829 0.697645 12.3894C0.743173 12.4089 0.795205 12.435 0.847237 12.448C0.853741 12.448 0.860246 12.448 0.860246 12.448C0.905775 12.461 0.951303 12.474 1.00334 12.4805C1.01634 12.4805 1.02935 12.4805 1.04886 12.487C1.09439 12.4935 1.14643 12.4935 1.19846 12.5H1.22447C1.2635 12.5 1.30252 12.5 1.34155 12.4935C1.35455 12.4935 1.36756 12.4935 1.38057 12.4935C1.41309 12.4935 1.44561 12.4805 1.47813 12.474C1.49114 12.474 1.50415 12.4675 1.51716 12.461C1.54968 12.4545 1.57569 12.4415 1.60821 12.435C1.62122 12.435 1.63423 12.422 1.64724 12.422C1.67976 12.4089 1.70577 12.3959 1.73179 12.3829C1.7448 12.3764 1.75781 12.3699 1.77082 12.3634C1.80984 12.3439 1.84236 12.3244 1.87488 12.2984C1.88789 12.2919 1.89439 12.2854 1.9074 12.2789C1.93342 12.2593 1.95943 12.2398 1.99195 12.2138C2.00496 12.2008 2.01797 12.1878 2.03098 12.1813C2.05049 12.1618 2.07651 12.1423 2.09602 12.1163C2.10903 12.1032 2.11553 12.0902 2.12854 12.0772C2.15456 12.0512 2.18057 12.0187 2.20008 11.9862C2.20008 11.9862 2.20659 11.9797 2.21309 11.9732H2.2196V11.9602L3.59846 9.95691L6.03748 6.4187L6.55781 5.66423V11.2837C6.55781 11.3553 6.56431 11.4268 6.57732 11.4919C6.57732 11.4984 6.57732 11.5049 6.57732 11.5114C6.59033 11.5829 6.60984 11.6545 6.63586 11.7195C6.63586 11.7195 6.63586 11.7325 6.64236 11.739C6.66838 11.8041 6.7009 11.8691 6.73992 11.9276C6.73992 11.9341 6.74643 11.9406 6.75293 11.9472C6.79195 12.0057 6.83098 12.0642 6.88301 12.1163C6.88951 12.1228 6.89602 12.1293 6.90252 12.1358C6.95455 12.1878 7.01309 12.2398 7.07813 12.2854C7.12366 12.3179 7.17569 12.3439 7.22773 12.3699C7.23423 12.3699 7.24724 12.3764 7.26025 12.3829C7.31228 12.4024 7.35781 12.4285 7.41634 12.4415C7.41634 12.4415 7.42285 12.4415 7.42935 12.4415C7.47488 12.4545 7.52041 12.4675 7.57244 12.474H7.61797C7.6635 12.487 7.71553 12.487 7.76106 12.4935H7.78708C7.8261 12.4935 7.86512 12.4935 7.90415 12.487C7.91716 12.487 7.93016 12.487 7.94317 12.487C7.97569 12.487 8.00821 12.474 8.04073 12.4675C8.05374 12.4675 8.06675 12.461 8.07976 12.4545C8.11228 12.448 8.1448 12.435 8.17081 12.4285C8.18382 12.4285 8.19683 12.4154 8.20984 12.4154C8.23586 12.4024 8.26838 12.3894 8.29439 12.3764C8.3074 12.3699 8.32041 12.3634 8.33342 12.3569C8.37244 12.3374 8.40496 12.3179 8.43748 12.2919C8.45049 12.2854 8.45699 12.2789 8.47 12.2724C8.49602 12.2528 8.52854 12.2333 8.55455 12.2073C8.56756 12.1943 8.58057 12.1813 8.59358 12.1748C8.61309 12.1553 8.6326 12.1358 8.65862 12.1098C8.67163 12.0967 8.68464 12.0837 8.69114 12.0707C8.71716 12.0447 8.73667 12.0122 8.76268 11.9797C8.76268 11.9797 8.76919 11.9732 8.77569 11.9667H8.7822V11.9537L8.98382 11.661L10.1611 9.95691L12.6001 6.4187L13.1204 5.65772V12.3829C13.1204 12.422 13.1204 12.461 13.1269 12.4935H15.5529C15.5529 12.461 15.5594 12.422 15.5594 12.3829V1.73577C15.5594 1.66423 15.5529 1.59919 15.5399 1.52764V1.53415ZM35.0651 1.47561C34.9285 1.39756 34.7659 1.37154 34.6098 1.39106C34.5643 1.39106 34.5188 1.40406 34.4733 1.41707C34.1871 1.50162 34.0245 1.73577 33.9985 2.08049C33.9985 2.1065 33.9985 2.13252 33.9985 2.15854C33.9985 2.52927 34.2261 2.80244 34.5578 2.86748C34.6033 2.87398 34.6489 2.88049 34.7009 2.88049C34.7789 2.86748 34.8635 2.85447 34.935 2.83496C35.2212 2.7439 35.3838 2.50975 35.3968 2.16504C35.4098 1.81382 35.2667 1.58618 35.0586 1.46911L35.0651 1.47561ZM35.0651 1.47561C34.9285 1.39756 34.7659 1.37154 34.6098 1.39106C34.5643 1.39106 34.5188 1.40406 34.4733 1.41707C34.1871 1.50162 34.0245 1.73577 33.9985 2.08049C33.9985 2.1065 33.9985 2.13252 33.9985 2.15854C33.9985 2.52927 34.2261 2.80244 34.5578 2.86748C34.6033 2.87398 34.6489 2.88049 34.7009 2.88049C34.7789 2.86748 34.8635 2.85447 34.935 2.83496C35.2212 2.7439 35.3838 2.50975 35.3968 2.16504C35.4098 1.81382 35.2667 1.58618 35.0586 1.46911L35.0651 1.47561ZM32.0147 1.37805C31.9822 1.38455 31.9562 1.39756 31.9237 1.40406C31.6765 1.49512 31.5269 1.72276 31.5009 2.04146C31.4684 2.43821 31.6895 2.7439 32.0147 2.82845C32.1448 2.86097 32.2879 2.86097 32.431 2.81545C32.7302 2.72439 32.9058 2.46423 32.9058 2.1065C32.9058 1.58618 32.5155 1.26098 32.0147 1.37805ZM32.0082 2.82845C32.1383 2.86097 32.2814 2.86097 32.4245 2.81545C32.7237 2.72439 32.8993 2.46423 32.8993 2.1065C32.8993 1.58618 32.509 1.26098 32.0082 1.37805C31.9757 1.38455 31.9497 1.39756 31.9172 1.40406C31.67 1.49512 31.5204 1.72276 31.4944 2.04146C31.4619 2.43821 31.683 2.7439 32.0082 2.82845ZM35.0651 1.47561C34.9285 1.39756 34.7659 1.37154 34.6098 1.39106C34.5643 1.39106 34.5188 1.40406 34.4733 1.41707C34.1871 1.50162 34.0245 1.73577 33.9985 2.08049C33.9985 2.1065 33.9985 2.13252 33.9985 2.15854C33.9985 2.52927 34.2261 2.80244 34.5578 2.86748C34.6033 2.87398 34.6489 2.88049 34.7009 2.88049C34.7789 2.86748 34.8635 2.85447 34.935 2.83496C35.2212 2.7439 35.3838 2.50975 35.3968 2.16504C35.4098 1.81382 35.2667 1.58618 35.0586 1.46911L35.0651 1.47561ZM38.1936 1.02683C37.9074 1.82032 37.6147 2.62032 37.3285 3.41382C37.218 3.71301 37.0033 3.97317 36.7237 4.12276C36.535 4.22032 36.3529 4.25285 36.1578 4.23333C36.0342 4.22032 35.9106 4.19431 35.7871 4.14878C35.8391 3.99919 35.8911 3.8561 35.9432 3.71301C36.0798 3.75203 36.2098 3.79756 36.3464 3.76504C36.6131 3.7065 36.7692 3.53089 36.8668 3.29024C36.8798 3.25772 36.8667 3.20569 36.8472 3.16667C36.5936 2.46423 36.3334 1.76179 36.0798 1.05285C36.0667 1.02033 36.0537 0.9813 36.0407 0.942276H36.5285C36.7237 1.48862 36.9253 2.04797 37.1204 2.60081C37.1269 2.60081 37.1334 2.60081 37.1464 2.60081C37.3415 2.04797 37.5367 1.50163 37.7383 0.942276H38.2196C38.2131 0.974796 38.2066 1.00081 38.2001 1.02683H38.1936ZM35.4098 3.29024V3.07561C35.3903 3.07561 35.3773 3.07561 35.3708 3.07561C35.1562 3.30975 34.7659 3.39431 34.3952 3.30975C34.1741 3.25772 33.9659 3.14065 33.8098 2.95854C33.7578 2.9 33.7123 2.82845 33.6732 2.7504C33.5887 2.5813 33.5432 2.38618 33.5367 2.19106C33.5237 1.91138 33.5952 1.6252 33.7318 1.39756C33.7578 1.35854 33.7838 1.31951 33.8098 1.28699C34.0505 1.00081 34.5123 0.844714 34.922 0.935771C35.0261 0.961787 35.1237 0.994309 35.2147 1.05285C35.2602 1.07886 35.3058 1.11788 35.3513 1.15691C35.3643 1.16341 35.3708 1.16992 35.4033 1.19593V0.935771H35.8651V3.28374H35.4098V3.29024ZM31.0326 0.942276H31.4879C31.4879 0.987804 31.4879 1.02683 31.4944 1.07886C31.5334 1.05935 31.5724 1.03984 31.605 1.02033C31.683 0.974797 31.7676 0.942276 31.8586 0.922764C32.0993 0.857724 32.3594 0.864227 32.5871 0.942276C32.6976 0.9813 32.8082 1.02683 32.8993 1.09837C32.9448 1.13089 32.9838 1.16341 33.0228 1.20244C33.2245 1.40406 33.322 1.65122 33.3546 1.93089C33.3871 2.23659 33.3415 2.52927 33.1854 2.80244C33.1074 2.93252 33.0098 3.03008 32.8993 3.11463C32.7692 3.20569 32.6261 3.26423 32.47 3.29675C32.3269 3.32927 32.1773 3.32927 32.0277 3.31626C32.0277 3.31626 32.0277 3.31626 32.0212 3.31626C31.8326 3.29675 31.6635 3.2252 31.4879 3.12764V4.00569H31.0196V0.955285L31.0326 0.942276ZM30.2456 0.506502V4.61707H36.5611C37.9074 4.61057 39.0001 3.51788 39.0001 2.16504V0.5H30.2456V0.506502ZM32.0147 1.37805C31.9822 1.38455 31.9562 1.39756 31.9237 1.40406C31.6765 1.49512 31.5269 1.72276 31.5009 2.04146C31.4684 2.43821 31.6895 2.7439 32.0147 2.82845C32.1448 2.86097 32.2879 2.86097 32.431 2.81545C32.7302 2.72439 32.9058 2.46423 32.9058 2.1065C32.9058 1.58618 32.5155 1.26098 32.0147 1.37805ZM35.0651 1.47561C34.9285 1.39756 34.7659 1.37154 34.6098 1.39106C34.5643 1.39106 34.5188 1.40406 34.4733 1.41707C34.1871 1.50162 34.0245 1.73577 33.9985 2.08049C33.9985 2.1065 33.9985 2.13252 33.9985 2.15854C33.9985 2.52927 34.2261 2.80244 34.5578 2.86748C34.6033 2.87398 34.6489 2.88049 34.7009 2.88049C34.7789 2.86748 34.8635 2.85447 34.935 2.83496C35.2212 2.7439 35.3838 2.50975 35.3968 2.16504C35.4098 1.81382 35.2667 1.58618 35.0586 1.46911L35.0651 1.47561ZM35.0651 1.47561C34.9285 1.39756 34.7659 1.37154 34.6098 1.39106C34.5643 1.39106 34.5188 1.40406 34.4733 1.41707C34.1871 1.50162 34.0245 1.73577 33.9985 2.08049C33.9985 2.1065 33.9985 2.13252 33.9985 2.15854C33.9985 2.52927 34.2261 2.80244 34.5578 2.86748C34.6033 2.87398 34.6489 2.88049 34.7009 2.88049C34.7789 2.86748 34.8635 2.85447 34.935 2.83496C35.2212 2.7439 35.3838 2.50975 35.3968 2.16504C35.4098 1.81382 35.2667 1.58618 35.0586 1.46911L35.0651 1.47561ZM32.0147 1.37805C31.9822 1.38455 31.9562 1.39756 31.9237 1.40406C31.6765 1.49512 31.5269 1.72276 31.5009 2.04146C31.4684 2.43821 31.6895 2.7439 32.0147 2.82845C32.1448 2.86097 32.2879 2.86097 32.431 2.81545C32.7302 2.72439 32.9058 2.46423 32.9058 2.1065C32.9058 1.58618 32.5155 1.26098 32.0147 1.37805ZM32.0147 1.37805C31.9822 1.38455 31.9562 1.39756 31.9237 1.40406C31.6765 1.49512 31.5269 1.72276 31.5009 2.04146C31.4684 2.43821 31.6895 2.7439 32.0147 2.82845C32.1448 2.86097 32.2879 2.86097 32.431 2.81545C32.7302 2.72439 32.9058 2.46423 32.9058 2.1065C32.9058 1.58618 32.5155 1.26098 32.0147 1.37805Z" fill="#5B26C7"/>
</svg>
