<?xml version="1.0" encoding="UTF-8"?>
<svg width="52px" height="19px" viewBox="0 0 52 19" version="1.1" xmlns="http://www.w3.org/2000/svg" xmlns:xlink="http://www.w3.org/1999/xlink">
    <title>mdpi/tabby-badge</title>
    <defs>
        <linearGradient x1="0%" y1="49.9960814%" x2="100.001001%" y2="49.9960814%" id="linearGradient-1">
            <stop stop-color="#3BFF9D" offset="0%"></stop>
            <stop stop-color="#3BFFC8" offset="100%"></stop>
        </linearGradient>
    </defs>
    <g id="Page-1" stroke="none" stroke-width="1" fill="none" fill-rule="evenodd">
        <g id="124-Payment_Tabby.E" transform="translate(-58.000000, -1077.000000)" fill-rule="nonzero">
            <g id="tabby-badge" transform="translate(58.000000, 1077.000000)">
                <path d="M47.9727837,19 L4.02721633,19 C1.80548329,19 0,17.3438834 0,15.3011806 L0,3.69404672 C0,1.65611655 1.80548329,0 4.02721633,0 L47.9727837,0 C50.1997198,0 52,1.65611655 52,3.69404672 L52,15.3011806 C52,17.3438834 50.1945167,19 47.9727837,19 Z" id="Path" fill="url(#linearGradient-1)"></path>
                <g id="Group" transform="translate(4.000000, 4.000000)" fill="#292929">
                    <polygon id="Path" points="40.7966331 2.39906103 37.9750553 11.9812207 37.9644876 12 40.1678545 12 43 2.39906103"></polygon>
                    <path d="M5.84922585,7.84976526 C5.55861391,7.98591549 5.1623249,8.0657277 4.7871713,8.0657277 C3.99459327,8.0657277 3.54546572,7.95305164 3.49791103,7.38497653 L3.49791103,7.38497653 L3.49791103,7.34741784 C3.49791103,7.32394366 3.49262718,7.30046948 3.49262718,7.27699531 L3.49262718,5.62441315 L3.49791103,5.42723005 L3.49791103,4.25821596 L3.49262718,4.25821596 L3.49262718,3.76056338 L3.49791103,3.56338028 L3.49791103,2.43661972 L1.53231752,2.66666667 C2.86384861,2.43661972 3.62472352,1.50234742 3.62472352,0.572769953 L3.62472352,0 L1.41607275,0 L1.41607275,2.68075117 L1.28926026,2.71361502 L1.28926026,7.68075117 C1.36323421,9.07511737 2.3988695,9.90610329 4.09498648,9.90610329 C4.69734579,9.90610329 5.35782748,9.78403756 5.86507741,9.58215962 L5.87564512,9.57746479 L5.87564512,7.83568075 L5.84922585,7.84976526 Z" id="Path"></path>
                    <polygon id="Path" points="6.19796019 2.03755869 0 2.88732394 0 4.28169014 6.19796019 3.43192488"></polygon>
                    <polygon id="Path" points="6.19796019 4.07981221 0 4.92957746 0 6.2629108 6.19796019 5.41314554"></polygon>
                    <path d="M13.1462276,4.72300469 C13.0564021,3.17370892 11.9679282,2.25352113 10.1925535,2.25352113 C9.17276972,2.25352113 8.32735316,2.6056338 7.75669698,3.26760563 C7.1860408,3.92957746 6.88486115,4.90140845 6.88486115,6.07981221 C6.88486115,7.25821596 7.1860408,8.23474178 7.75669698,8.89201878 C8.32735316,9.55399061 9.17276972,9.90610329 10.1925535,9.90610329 C11.9679282,9.90610329 13.0616859,8.98122066 13.1462276,7.42253521 L13.1462276,9.76056338 L15.3548783,9.76056338 L15.3548783,2.41314554 L13.1462276,2.71361502 M13.2624724,6.07981221 C13.2624724,7.45539906 12.4487589,8.342723 11.1964856,8.342723 C9.90194151,8.342723 9.13049889,7.49765258 9.13049889,6.07981221 C9.13049889,4.657277 9.90194151,3.8028169 11.1964856,3.8028169 C11.8252642,3.8028169 12.3536495,4.01877934 12.7182354,4.43192488 C13.0722536,4.84037559 13.2624724,5.4084507 13.2624724,6.07981221 Z" id="Shape"></path>
                    <g transform="translate(16.633571, 0.276995)" id="Shape">
                        <path d="M5.1623249,1.97652582 C3.38166626,1.97652582 2.29319243,2.89671362 2.20865077,4.45070423 L2.20865077,0 L0,0.300469484 L0,9.48356808 L2.20865077,9.48356808 L2.20865077,7.14553991 C2.29319243,8.70422535 3.38695011,9.62910798 5.1623249,9.62910798 C7.24416319,9.62910798 8.48586876,8.1971831 8.48586876,5.8028169 C8.48586876,3.4084507 7.24416319,1.97652582 5.1623249,1.97652582 Z M4.15839273,8.0657277 C2.90083559,8.0657277 2.092406,7.17840376 2.092406,5.8028169 C2.092406,5.1314554 2.28262472,4.56338028 2.63664291,4.15962441 C3.0012288,3.74647887 3.52961416,3.53051643 4.15839273,3.53051643 C5.45293684,3.53051643 6.22437945,4.38028169 6.22437945,5.80751174 C6.22437945,7.22065728 5.45293684,8.0657277 4.15839273,8.0657277 Z"></path>
                        <path d="M14.4936102,1.97652582 C12.7129516,1.97652582 11.6244778,2.89671362 11.5399361,4.45070423 L11.5399361,0 L9.33128533,0.300469484 L9.33128533,9.48356808 L11.5399361,9.48356808 L11.5399361,7.14553991 C11.6244778,8.70422535 12.7182354,9.62910798 14.4936102,9.62910798 C16.5754485,9.62910798 17.8171541,8.1971831 17.8171541,5.8028169 C17.8171541,3.4084507 16.5754485,1.97652582 14.4936102,1.97652582 Z M13.4949619,8.0657277 C12.2374048,8.0657277 11.4289752,7.17840376 11.4289752,5.8028169 C11.4289752,5.1314554 11.6191939,4.56338028 11.9732121,4.15962441 C12.337798,3.74647887 12.8661833,3.53051643 13.4949619,3.53051643 C14.789506,3.53051643 15.5609486,4.38028169 15.5609486,5.80751174 C15.5609486,7.22065728 14.789506,8.0657277 13.4949619,8.0657277 Z"></path>
                    </g>
                    <polygon id="Path" points="34.4560088 2.39906103 36.8126075 2.39906103 38.7306464 9.75117371 36.6171049 9.75117371"></polygon>
                </g>
            </g>
        </g>
    </g>
</svg>